<?xml version="1.0" encoding="utf-8"?>
<!-- Generator: Adobe Illustrator 16.0.0, SVG Export Plug-In . SVG Version: 6.00 Build 0)  -->
<!DOCTYPE svg PUBLIC "-//W3C//DTD SVG 1.1//EN" "http://www.w3.org/Graphics/SVG/1.1/DTD/svg11.dtd">
<svg version="1.1" id="Layer_1" xmlns="http://www.w3.org/2000/svg" xmlns:xlink="http://www.w3.org/1999/xlink" x="0px" y="0px"
	 width="50px" height="50px" viewBox="0 0 50 50" enable-background="new 0 0 50 50" xml:space="preserve">
<g>
	<path fill="#A95E2F" d="M32.9,3.7c-1.3,0-4.6,0-8.1,0c-3.5,0-6.8,0-8.1,0c-3.9,0-4.2,1.9-3.8,4.5c0.3,1.7,0.6,3.4,0,4.9
		c-0.8,2.2-0.3,4.2,0.4,6.2c0.3,0.8,0.6,1.5,0.6,2.4c0.4,6.8,1.2,18.9,1.2,20.4c0,1.5,0,3.3,2.6,3.3h7h7c2.6,0,2.6-1.8,2.6-3.3
		c0-1.5,0.9-13.6,1.2-20.4c0.1-0.9,0.3-1.6,0.6-2.4c0.8-2,1.3-4,0.4-6.2c-0.6-1.5-0.2-3.2,0-4.9C37.1,5.6,36.8,3.7,32.9,3.7
		L32.9,3.7z"/>
	<g>
		<defs>
			<path id="SVGID_1_" d="M32.9,3.7c-1.3,0-4.6,0-8.1,0c-3.5,0-6.8,0-8.1,0c-3.9,0-4.2,1.9-3.8,4.5c0.3,1.7,0.6,3.4,0,4.9
				c-0.8,2.2-0.3,4.2,0.4,6.2c0.3,0.8,0.6,1.5,0.6,2.4c0.4,6.8,1.2,18.9,1.2,20.4c0,1.5,0,3.3,2.6,3.3h7h7c2.6,0,2.6-1.8,2.6-3.3
				c0-1.5,0.9-13.6,1.2-20.4c0.1-0.9,0.3-1.6,0.6-2.4c0.8-2,1.3-4,0.4-6.2c-0.6-1.5-0.2-3.2,0-4.9C37.1,5.6,36.8,3.7,32.9,3.7
				L32.9,3.7z"/>
		</defs>
		<clipPath id="SVGID_2_">
			<use xlink:href="#SVGID_1_"  overflow="visible"/>
		</clipPath>
		<rect x="6.2" y="3.7" clip-path="url(#SVGID_2_)" fill="#FFFFFF" width="37.2" height="8.6"/>
	</g>
	<path d="M32.9,5.7c1.5,0,1.8,0.3,1.8,0.3c0,0,0.2,0.3,0,1.8c0,0.2-0.1,0.3-0.1,0.5c-0.3,1.7-0.6,3.5,0.2,5.4
		c0.6,1.5,0.3,2.9-0.4,4.8c-0.3,0.8-0.7,1.8-0.8,3c-0.2,2.8-0.4,6.4-0.6,9.9c-0.4,6-0.6,9.7-0.6,10.6c0,0.3,0,0.9-0.1,1.2
		c-0.1,0-0.2,0-0.5,0h-7h-7c-0.2,0-0.4,0-0.5,0c-0.1-0.3-0.1-0.9-0.1-1.2c0-0.9-0.2-4.6-0.6-10.6c-0.2-3.5-0.5-7.2-0.6-9.9
		c-0.1-1.2-0.4-2.1-0.8-3c-0.7-1.9-1-3.3-0.4-4.7c0.7-1.9,0.4-3.8,0.2-5.4c0-0.2-0.1-0.3-0.1-0.5c-0.2-1.6,0-1.8,0-1.8
		c0,0,0.3-0.3,1.8-0.3c1.3,0,4.6,0,8.1,0C28.3,5.7,31.6,5.7,32.9,5.7 M32.9,3.7c-1.3,0-4.6,0-8.1,0c-3.5,0-6.8,0-8.1,0
		c-3.9,0-4.2,1.9-3.8,4.5c0.3,1.7,0.6,3.4,0,4.9c-0.8,2.2-0.3,4.2,0.4,6.2c0.3,0.8,0.6,1.5,0.6,2.4c0.4,6.8,1.2,18.9,1.2,20.4
		c0,1.5,0,3.3,2.6,3.3h7h7c2.6,0,2.6-1.8,2.6-3.3c0-1.5,0.9-13.6,1.2-20.4c0.1-0.9,0.3-1.6,0.6-2.4c0.8-2,1.3-4,0.4-6.2
		c-0.6-1.5-0.2-3.2,0-4.9C37.1,5.6,36.8,3.7,32.9,3.7L32.9,3.7z"/>
</g>
</svg>
