<?xml version="1.0" encoding="utf-8"?>
<!-- Generator: Adobe Illustrator 16.0.0, SVG Export Plug-In . SVG Version: 6.00 Build 0)  -->
<!DOCTYPE svg PUBLIC "-//W3C//DTD SVG 1.1//EN" "http://www.w3.org/Graphics/SVG/1.1/DTD/svg11.dtd">
<svg version="1.1" id="Layer_1" xmlns="http://www.w3.org/2000/svg" xmlns:xlink="http://www.w3.org/1999/xlink" x="0px" y="0px"
	 width="50px" height="50px" viewBox="0 0 50 50" enable-background="new 0 0 50 50" xml:space="preserve">
<g>
	<path fill-rule="evenodd" clip-rule="evenodd" fill="#FCB017" d="M24.8,0.6c2.4,0,4.7,0,7.1,0c1.4,0,1.8,0.4,1.8,1.8
		c-0.1,6.9-0.7,13.8-2.1,20.6c-1,5.1-2,10.2-2,15.5c0,2.7,0.3,5.3,1.7,7.8c0.9,1.6,0.2,2.6-1.6,2.6c-3.3,0-6.6,0-9.9,0
		c-0.7,0-1.5,0.1-1.7-0.7c-0.2-0.7-0.3-1.4,0.2-2.1c1.4-1.9,1.6-4.1,1.7-6.3c0.2-4.9-0.6-9.7-1.6-14.5c-1.5-7.4-2.5-14.9-2.5-22.4
		c0-2,0.2-2.2,2.2-2.2C20.4,0.6,22.6,0.6,24.8,0.6z"/>
	<g>
		<defs>
			<path id="SVGID_1_" d="M24.8,0.6c2.4,0,4.7,0,7.1,0c1.4,0,1.8,0.4,1.8,1.8c-0.1,6.9-0.7,13.8-2.1,20.6c-1,5.1-2,10.2-2,15.5
				c0,2.7,0.3,5.3,1.7,7.8c0.9,1.6,0.2,2.6-1.6,2.6c-3.3,0-6.6,0-9.9,0c-0.7,0-1.5,0.1-1.7-0.7c-0.2-0.7-0.3-1.4,0.2-2.1
				c1.4-1.9,1.6-4.1,1.7-6.3c0.2-4.9-0.6-9.7-1.6-14.5c-1.5-7.4-2.5-14.9-2.5-22.4c0-2,0.2-2.2,2.2-2.2C20.4,0.6,22.6,0.6,24.8,0.6z
				"/>
		</defs>
		<clipPath id="SVGID_2_">
			<use xlink:href="#SVGID_1_"  overflow="visible"/>
		</clipPath>
		<rect x="6.2" y="0.6" clip-path="url(#SVGID_2_)" fill="#FFFFFF" width="37.2" height="8.6"/>
	</g>
	<path fill-rule="evenodd" clip-rule="evenodd" d="M24.8,0.6c2.4,0,4.7,0,7.1,0c1.4,0,1.8,0.4,1.8,1.8c-0.1,6.9-0.7,13.8-2.1,20.6
		c-1,5.1-2,10.2-2,15.5c0,2.7,0.3,5.3,1.7,7.8c0.9,1.6,0.2,2.6-1.6,2.6c-3.3,0-6.6,0-9.9,0c-0.7,0-1.5,0.1-1.7-0.7
		c-0.2-0.7-0.3-1.4,0.2-2.1c1.4-1.9,1.6-4.1,1.7-6.3c0.2-4.9-0.6-9.7-1.6-14.5c-1.5-7.4-2.5-14.9-2.5-22.4c0-2,0.2-2.2,2.2-2.2
		C20.4,0.6,22.6,0.6,24.8,0.6z M18.2,7.2c0,0.4,0,0.7,0,1.1c0.2,5.9,1.3,11.7,2.5,17.4c0.6,3.2,1.1,6.4,1.3,9.6
		c0.2,3.7,0.3,7.4-1.3,10.9c-0.3,0.6,0.1,0.6,0.5,0.6c2.4,0,4.8,0,7.2,0c0.6,0,0.8-0.1,0.5-0.8c-1.4-3.1-1.6-6.4-1.3-9.7
		c0.5-5.4,1.3-10.7,2.4-16c0.9-4.4,1.4-8.8,1.5-13.2c0-1,0.1-2,0.1-3c0-1.7,0-1.7-1.7-1.6c-2.9,0-5.9,0-8.8,0c-0.8,0-1.6,0-2.3,0
		c-0.5,0-0.6,0.2-0.6,0.6C18.1,4.6,18.2,5.9,18.2,7.2z"/>
</g>
</svg>
