<?xml version="1.0" encoding="utf-8"?>
<!-- Generator: Adobe Illustrator 16.0.0, SVG Export Plug-In . SVG Version: 6.00 Build 0)  -->
<!DOCTYPE svg PUBLIC "-//W3C//DTD SVG 1.1//EN" "http://www.w3.org/Graphics/SVG/1.1/DTD/svg11.dtd">
<svg version="1.1" id="Layer_1" xmlns="http://www.w3.org/2000/svg" xmlns:xlink="http://www.w3.org/1999/xlink" x="0px" y="0px"
	 width="50px" height="50px" viewBox="0 0 50 50" enable-background="new 0 0 50 50" xml:space="preserve">
<g>
	<path fill-rule="evenodd" clip-rule="evenodd" fill="#FAA950" d="M24.8,3.7c3.7,0,7.4,0,11.2,0c1.3,0,1.7,0.5,1.6,1.8
		c-0.6,6.6-1.2,13.2-1.8,19.9c-0.5,5.8-1,11.7-1.5,17.5c0,0.4-0.1,0.8-0.2,1.2c-0.1,0.8-0.6,1.2-1.5,1.2c-5.3,0-10.6,0-16,0
		c-1,0-1.4-0.5-1.5-1.4c-0.3-2.8-0.5-5.6-0.8-8.4c-0.5-5.9-1-11.8-1.6-17.7c-0.4-4.1-0.7-8.2-1.1-12.3c-0.1-1.3,0.4-1.8,1.6-1.8
		C17.3,3.7,21,3.7,24.8,3.7z"/>
	<g>
		<defs>
			<path id="SVGID_1_" d="M24.8,3.7c3.7,0,7.4,0,11.2,0c1.3,0,1.7,0.5,1.6,1.8c-0.6,6.6-1.2,13.2-1.8,19.9c-0.5,5.8-1,11.7-1.5,17.5
				c0,0.4-0.1,0.8-0.2,1.2c-0.1,0.8-0.6,1.2-1.5,1.2c-5.3,0-10.6,0-16,0c-1,0-1.4-0.5-1.5-1.4c-0.3-2.8-0.5-5.6-0.8-8.4
				c-0.5-5.9-1-11.8-1.6-17.7c-0.4-4.1-0.7-8.2-1.1-12.3c-0.1-1.3,0.4-1.8,1.6-1.8C17.3,3.7,21,3.7,24.8,3.7z"/>
		</defs>
		<clipPath id="SVGID_2_">
			<use xlink:href="#SVGID_1_"  overflow="visible"/>
		</clipPath>
		<rect x="6.1" y="3.7" clip-path="url(#SVGID_2_)" fill="#FFFFFF" width="37.2" height="8.6"/>
	</g>
	<path fill-rule="evenodd" clip-rule="evenodd" d="M24.8,3.7c3.7,0,7.4,0,11.2,0c1.3,0,1.7,0.5,1.6,1.8c-0.6,6.6-1.2,13.2-1.8,19.9
		c-0.5,5.8-1,11.7-1.5,17.5c0,0.4-0.1,0.8-0.2,1.2c-0.1,0.8-0.6,1.2-1.5,1.2c-5.3,0-10.6,0-16,0c-1,0-1.4-0.5-1.5-1.4
		c-0.3-2.8-0.5-5.6-0.8-8.4c-0.5-5.9-1-11.8-1.6-17.7c-0.4-4.1-0.7-8.2-1.1-12.3c-0.1-1.3,0.4-1.8,1.6-1.8C17.3,3.7,21,3.7,24.8,3.7
		z M33.3,5.8c-4.8,0-9.7,0-14.5,0c-1.4,0-2.8,0-4.2,0c-0.4,0-0.6,0.1-0.6,0.6c0.1,1.3,0.1,2.7,0.4,4c0.5,6.2,1,12.4,1.6,18.6
		c0.4,4.4,0.8,8.9,1.2,13.3c0,0.5,0.1,1,0.8,1c3.4,0,6.8,0,10.2,0c0.5,0,1,0,1.5,0c0.6,0,1.2,0,1.8,0c0.6,0,0.8-0.2,0.8-0.8
		c0.3-3.9,0.7-7.9,1-11.8c0.2-1.9,0.3-3.8,0.5-5.8c0.4-4.9,0.8-9.7,1.2-14.6c0.1-0.9,0.3-1.7,0.3-2.6C35.5,5.6,35.5,5.6,33.3,5.8z"
		/>
</g>
</svg>
