<?xml version="1.0" encoding="utf-8"?>
<!-- Generator: Adobe Illustrator 16.0.0, SVG Export Plug-In . SVG Version: 6.00 Build 0)  -->
<!DOCTYPE svg PUBLIC "-//W3C//DTD SVG 1.1//EN" "http://www.w3.org/Graphics/SVG/1.1/DTD/svg11.dtd">
<svg version="1.1" id="Layer_1" xmlns="http://www.w3.org/2000/svg" xmlns:xlink="http://www.w3.org/1999/xlink" x="0px" y="0px"
	 width="50px" height="50px" viewBox="0 0 50 50" enable-background="new 0 0 50 50" xml:space="preserve">
<g>
	<path fill-rule="evenodd" clip-rule="evenodd" fill="#FCB017" d="M32.5,46.7c0,1.4-0.4,1.8-1.8,1.8c-3.8,0-7.6,0-11.4,0
		c-1.3,0-1.8-0.4-1.8-1.8c-0.2-14.5-0.5-29-0.7-43.4c0-1.5,0.3-1.8,1.8-1.8c4.2,0,8.4,0,12.6,0c1.7,0,1.9,0.2,1.9,1.9
		C33.2,10.6,32.6,39.4,32.5,46.7z"/>
	<g>
		<defs>
			<path id="SVGID_1_" d="M32.5,46.7c0,1.4-0.4,1.8-1.8,1.8c-3.8,0-7.6,0-11.4,0c-1.3,0-1.8-0.4-1.8-1.8c-0.2-14.5-0.5-29-0.7-43.4
				c0-1.5,0.3-1.8,1.8-1.8c4.2,0,8.4,0,12.6,0c1.7,0,1.9,0.2,1.9,1.9C33.2,10.6,32.6,39.4,32.5,46.7z"/>
		</defs>
		<clipPath id="SVGID_2_">
			<use xlink:href="#SVGID_1_"  overflow="visible"/>
		</clipPath>
		<rect x="6.4" y="1.5" clip-path="url(#SVGID_2_)" fill="#FFFFFF" width="37.2" height="8.6"/>
	</g>
	<path fill-rule="evenodd" clip-rule="evenodd" d="M32.5,46.7c0,1.4-0.4,1.8-1.8,1.8c-3.8,0-7.6,0-11.4,0c-1.3,0-1.8-0.4-1.8-1.8
		c-0.2-14.5-0.5-29-0.7-43.4c0-1.5,0.3-1.8,1.8-1.8c4.2,0,8.4,0,12.6,0c1.7,0,1.9,0.2,1.9,1.9C33.2,10.6,32.6,39.4,32.5,46.7z
		 M29.6,3.5c-0.4,0-0.8,0-1.2,0c-1,0-2.1,0-3.1,0c-0.5,0-1.1,0-1.6,0c-1.4,0-2.7,0-4.1,0c-0.5,0-0.6,0.2-0.6,0.6c0,1.4,0,2.7,0,4.1
		c-0.1,2.1,0,4.2,0.1,6.2c0.2,9.8,0.3,19.6,0.4,29.4c0,2.8,0,2.8,2.9,2.6c2.3,0,4.5,0,6.8,0c1,0,1.3-0.2,1.3-1.2
		c0.1-6.3,0.2-12.7,0.3-19c0.1-6,0.2-12,0.2-18c0-1.1,0-2.2,0.1-3.3C31.1,3.4,31.1,3.4,29.6,3.5z"/>
</g>
</svg>
