<?xml version="1.0" encoding="utf-8"?>
<!-- Generator: Adobe Illustrator 16.0.0, SVG Export Plug-In . SVG Version: 6.00 Build 0)  -->
<!DOCTYPE svg PUBLIC "-//W3C//DTD SVG 1.1//EN" "http://www.w3.org/Graphics/SVG/1.1/DTD/svg11.dtd">
<svg version="1.1" id="Layer_1" xmlns="http://www.w3.org/2000/svg" xmlns:xlink="http://www.w3.org/1999/xlink" x="0px" y="0px"
	 width="50px" height="50px" viewBox="0 0 50 50" enable-background="new 0 0 50 50" xml:space="preserve">
<g>
	<path fill-rule="evenodd" clip-rule="evenodd" fill="#FCB017" d="M24.6,1c1.9,0,3.8,0,5.7,0c1.3,0,1.8,0.5,1.7,1.8
		c-0.3,3.8-0.7,7.7-1.1,11.5c-0.5,5.3-1,10.6-1.5,15.9c-0.4,4.6-0.9,9.2-1.3,13.8c-0.2,2.2,0.2,2.9,2.4,3.4c0.6,0.1,1,0.5,0.9,1
		c0,0.7-0.5,1-1.2,1c-2.7,0-5.4,0-8.1,0c-1.1,0-2.1,0-3.2,0c-0.7,0-1.2-0.3-1.2-1c0-0.7,0.4-1,1.1-1.1c1.6-0.2,2.4-1.1,2.3-2.7
		c-0.6-6.6-1.3-13.2-2-19.9c-0.6-6-1.1-12-1.7-18c-0.1-1.3-0.3-2.5-0.4-3.8C16.9,1.4,17.3,1,18.8,1C20.7,1,22.6,1,24.6,1z"/>
	<g>
		<defs>
			<path id="SVGID_1_" d="M24.6,1c1.9,0,3.8,0,5.7,0c1.3,0,1.8,0.5,1.7,1.8c-0.3,3.8-0.7,7.7-1.1,11.5c-0.5,5.3-1,10.6-1.5,15.9
				c-0.4,4.6-0.9,9.2-1.3,13.8c-0.2,2.2,0.2,2.9,2.4,3.4c0.6,0.1,1,0.5,0.9,1c0,0.7-0.5,1-1.2,1c-2.7,0-5.4,0-8.1,0
				c-1.1,0-2.1,0-3.2,0c-0.7,0-1.2-0.3-1.2-1c0-0.7,0.4-1,1.1-1.1c1.6-0.2,2.4-1.1,2.3-2.7c-0.6-6.6-1.3-13.2-2-19.9
				c-0.6-6-1.1-12-1.7-18c-0.1-1.3-0.3-2.5-0.4-3.8C16.9,1.4,17.3,1,18.8,1C20.7,1,22.6,1,24.6,1z"/>
		</defs>
		<clipPath id="SVGID_2_">
			<use xlink:href="#SVGID_1_"  overflow="visible"/>
		</clipPath>
		<rect x="6.6" y="1" clip-path="url(#SVGID_2_)" fill="#FFFFFF" width="37.2" height="8.6"/>
	</g>
	<path fill-rule="evenodd" clip-rule="evenodd" d="M24.6,1c1.9,0,3.8,0,5.7,0c1.3,0,1.8,0.5,1.7,1.8c-0.3,3.8-0.7,7.7-1.1,11.5
		c-0.5,5.3-1,10.6-1.5,15.9c-0.4,4.6-0.9,9.2-1.3,13.8c-0.2,2.2,0.2,2.9,2.4,3.4c0.6,0.1,1,0.5,0.9,1c0,0.7-0.5,1-1.2,1
		c-2.7,0-5.4,0-8.1,0c-1.1,0-2.1,0-3.2,0c-0.7,0-1.2-0.3-1.2-1c0-0.7,0.4-1,1.1-1.1c1.6-0.2,2.4-1.1,2.3-2.7
		c-0.6-6.6-1.3-13.2-2-19.9c-0.6-6-1.1-12-1.7-18c-0.1-1.3-0.3-2.5-0.4-3.8C16.9,1.4,17.3,1,18.8,1C20.7,1,22.6,1,24.6,1z M28.5,3.1
		c-2.3,0-4.6,0-7,0c-0.6,0-1.2,0-1.8,0c-0.4,0-0.5,0.1-0.5,0.5c0.1,1.3,0.2,2.7,0.4,4c0.5,5.6,1,11.3,1.6,16.9
		c0.6,6.8,1.3,13.6,2,20.4c0.1,1,0.5,1.1,1.3,1.1c0.7,0,1.4,0.1,1.4-1c0.2-3,0.5-6.1,0.8-9.1c0.4-3.8,0.7-7.6,1.1-11.4
		c0.5-5.6,1-11.2,1.6-16.8c0.2-1.1,0.3-2.2,0.4-3.3C29.8,3,29.8,3,28.5,3.1z"/>
</g>
</svg>
