<?xml version="1.0" encoding="utf-8"?>
<!-- Generator: Adobe Illustrator 16.0.0, SVG Export Plug-In . SVG Version: 6.00 Build 0)  -->
<!DOCTYPE svg PUBLIC "-//W3C//DTD SVG 1.1//EN" "http://www.w3.org/Graphics/SVG/1.1/DTD/svg11.dtd">
<svg version="1.1" id="Layer_1" xmlns="http://www.w3.org/2000/svg" xmlns:xlink="http://www.w3.org/1999/xlink" x="0px" y="0px"
	 width="50px" height="50px" viewBox="0 0 50 50" enable-background="new 0 0 50 50" xml:space="preserve">
<g>
	<path fill="#301B1A" d="M33.3,47.3c-1,0-1.9-0.1-2.9-0.1c-0.2,0-0.4,0-0.6,0c-2.2-0.3-3.4-1-3.7-3.4c-0.2-1.7-0.1-3.4-0.2-5.1
		c0.3-1,0-2.2,0.6-3.2c0.8-1.7,2.2-2.6,3.9-3.2c5-1.7,7.2-6.3,6.8-10.9c-0.2-2.7-1.3-5.2-2.2-7.7c-0.8-2.1-1.4-4.2-1-6.5
		c0.2-1.6,0.7-3,1.3-4.5C35.8,1.7,35.5,1,34.5,1c-6.4,0-12.7,0-19.1,0c-0.9,0-1.2,0.7-0.8,1.5c1.5,3,2.1,6.2,1.1,9.5
		c-0.6,1.9-1.3,3.7-2,5.6c-1.2,3.5-1.3,7,0.4,10.2c1.3,2.4,3.4,4.2,6.2,5c1.8,0.5,3.6,2.7,3.7,4.4c0.1,2.1,0,4.2,0,6.3
		c-0.1,1.9-0.9,2.9-2.8,3.4c-1.4,0.4-2.9,0.4-4.4,0.4c-0.7,0-1.3,0.2-1.3,1.1c0,0.8,0.6,1,1.3,1c5.5,0,10.9,0,16.4,0
		c0.7,0,1.3-0.2,1.3-1C34.6,47.6,34,47.3,33.3,47.3z"/>
	<g>
		<defs>
			<path id="SVGID_1_" d="M33.3,47.3c-1,0-1.9-0.1-2.9-0.1c-0.2,0-0.4,0-0.6,0c-2.2-0.3-3.4-1-3.7-3.4c-0.2-1.7-0.1-3.4-0.2-5.1
				c0.3-1,0-2.2,0.6-3.2c0.8-1.7,2.2-2.6,3.9-3.2c5-1.7,7.2-6.3,6.8-10.9c-0.2-2.7-1.3-5.2-2.2-7.7c-0.8-2.1-1.4-4.2-1-6.5
				c0.2-1.6,0.7-3,1.3-4.5C35.8,1.7,35.5,1,34.5,1c-6.4,0-12.7,0-19.1,0c-0.9,0-1.2,0.7-0.8,1.5c1.5,3,2.1,6.2,1.1,9.5
				c-0.6,1.9-1.3,3.7-2,5.6c-1.2,3.5-1.3,7,0.4,10.2c1.3,2.4,3.4,4.2,6.2,5c1.8,0.5,3.6,2.7,3.7,4.4c0.1,2.1,0,4.2,0,6.3
				c-0.1,1.9-0.9,2.9-2.8,3.4c-1.4,0.4-2.9,0.4-4.4,0.4c-0.7,0-1.3,0.2-1.3,1.1c0,0.8,0.6,1,1.3,1c5.5,0,10.9,0,16.4,0
				c0.7,0,1.3-0.2,1.3-1C34.6,47.6,34,47.3,33.3,47.3z"/>
		</defs>
		<clipPath id="SVGID_2_">
			<use xlink:href="#SVGID_1_"  overflow="visible"/>
		</clipPath>
		<rect x="6.5" y="1" clip-path="url(#SVGID_2_)" fill="#FFFFFF" width="37.2" height="8.6"/>
	</g>
	<path d="M33.3,47.3c-1,0-1.9-0.1-2.9-0.1c-0.2,0-0.4,0-0.6,0c-2.2-0.3-3.4-1-3.7-3.4c-0.2-1.7-0.1-3.4-0.2-5.1c0.3-1,0-2.2,0.6-3.2
		c0.8-1.7,2.2-2.6,3.9-3.2c5-1.7,7.2-6.3,6.8-10.9c-0.2-2.7-1.3-5.2-2.2-7.7c-0.8-2.1-1.4-4.2-1-6.5c0.2-1.6,0.7-3,1.3-4.5
		C35.8,1.7,35.5,1,34.5,1c-6.4,0-12.7,0-19.1,0c-0.9,0-1.2,0.7-0.8,1.5c1.5,3,2.1,6.2,1.1,9.5c-0.6,1.9-1.3,3.7-2,5.6
		c-1.2,3.5-1.3,7,0.4,10.2c1.3,2.4,3.4,4.2,6.2,5c1.8,0.5,3.6,2.7,3.7,4.4c0.1,2.1,0,4.2,0,6.3c-0.1,1.9-0.9,2.9-2.8,3.4
		c-1.4,0.4-2.9,0.4-4.4,0.4c-0.7,0-1.3,0.2-1.3,1.1c0,0.8,0.6,1,1.3,1c5.5,0,10.9,0,16.4,0c0.7,0,1.3-0.2,1.3-1
		C34.6,47.6,34,47.3,33.3,47.3z M18,29.1c-1.8-1.5-2.7-3.4-2.9-5.7c-0.2-3.1,0.9-6,2-8.8c0.9-2.2,1.4-4.5,1.3-7
		c-0.4-1.5-0.5-3-1.2-4.5c1.3,0,2.4,0,3.6,0c4,0,8,0,12.2,0c-0.6,1.5-0.8,3-1.1,4.5c-0.2,2.8,0.6,5.3,1.6,7.8c1,2.4,1.8,4.8,1.7,7.5
		c-0.1,4.4-3.3,7.7-7.7,8c-0.5,0.1-1,0.3-1.5,0.2C23.1,31.2,20.4,30.9,18,29.1z"/>
</g>
</svg>
