<?xml version="1.0" encoding="utf-8"?>
<!-- Generator: Adobe Illustrator 16.0.0, SVG Export Plug-In . SVG Version: 6.00 Build 0)  -->
<!DOCTYPE svg PUBLIC "-//W3C//DTD SVG 1.1//EN" "http://www.w3.org/Graphics/SVG/1.1/DTD/svg11.dtd">
<svg version="1.1" id="Layer_1" xmlns="http://www.w3.org/2000/svg" xmlns:xlink="http://www.w3.org/1999/xlink" x="0px" y="0px"
	 width="50px" height="50px" viewBox="0 0 50 50" enable-background="new 0 0 50 50" xml:space="preserve">
<g>
	<path fill-rule="evenodd" clip-rule="evenodd" fill="#241918" d="M26.3,34.5c0.6-1.3,1.7-2.1,3-2.5c0.8-0.3,1.7-0.5,2.5-0.8
		c6.3-2.2,9.4-7.5,8.2-14c-0.8-4.5-2.6-8.6-4.4-12.7c-0.3-0.6-0.7-0.7-1.3-0.7c-6.4,0-12.8,0-19.2,0c-0.7,0-1.2,0.2-1.5,0.9
		c-1.8,3.9-3.4,8-4.3,12.2c-1.3,6.2,1.3,11.3,6.9,13.9c1.1,0.5,2.2,0.8,3.3,1.1c2.7,0.7,3.7,2.1,3.7,4.8c0,0.7,0,1.4,0,2
		c-0.1,2.3-1.4,3.8-3.6,4.4c-1.1,0.3-2.2,0.2-3.3,0.2c-0.7,0-1.2,0.3-1.2,1.1c0,0.8,0.5,1,1.2,1c5.5,0,11,0,16.5,0
		c0.7,0,1.2-0.2,1.2-1c0-0.8-0.6-1-1.3-1c-1,0-1.9-0.1-2.9-0.1c-1.4-0.2-2.5-0.8-3.3-2.1c0,0-0.1,0-0.1,0c0,0,0.1,0,0.1,0
		c-0.1-0.1-0.1-0.2-0.2-0.3C25.8,38.9,26.3,34.6,26.3,34.5z M25.7,39.6C25.7,39.6,25.7,39.6,25.7,39.6
		C25.7,39.6,25.7,39.6,25.7,39.6z"/>
	<g>
		<defs>
			<path id="SVGID_1_" d="M26.3,34.5c0.6-1.3,1.7-2.1,3-2.5c0.8-0.3,1.7-0.5,2.5-0.8c6.3-2.2,9.4-7.5,8.2-14
				c-0.8-4.5-2.6-8.6-4.4-12.7c-0.3-0.6-0.7-0.7-1.3-0.7c-6.4,0-12.8,0-19.2,0c-0.7,0-1.2,0.2-1.5,0.9c-1.8,3.9-3.4,8-4.3,12.2
				c-1.3,6.2,1.3,11.3,6.9,13.9c1.1,0.5,2.2,0.8,3.3,1.1c2.7,0.7,3.7,2.1,3.7,4.8c0,0.7,0,1.4,0,2c-0.1,2.3-1.4,3.8-3.6,4.4
				c-1.1,0.3-2.2,0.2-3.3,0.2c-0.7,0-1.2,0.3-1.2,1.1c0,0.8,0.5,1,1.2,1c5.5,0,11,0,16.5,0c0.7,0,1.2-0.2,1.2-1c0-0.8-0.6-1-1.3-1
				c-1,0-1.9-0.1-2.9-0.1c-1.4-0.2-2.5-0.8-3.3-2.1c0,0-0.1,0-0.1,0c0,0,0.1,0,0.1,0c-0.1-0.1-0.1-0.2-0.2-0.3
				C25.8,38.9,26.3,34.6,26.3,34.5z M25.7,39.6C25.7,39.6,25.7,39.6,25.7,39.6C25.7,39.6,25.7,39.6,25.7,39.6z"/>
		</defs>
		<clipPath id="SVGID_2_">
			<use xlink:href="#SVGID_1_"  overflow="visible"/>
		</clipPath>
		<rect x="6.2" y="3.5" clip-path="url(#SVGID_2_)" fill="#FFFFFF" width="37.2" height="8.6"/>
	</g>
	<path fill-rule="evenodd" clip-rule="evenodd" d="M26.3,34.5c0.6-1.3,1.7-2.1,3-2.5c0.8-0.3,1.7-0.5,2.5-0.8
		c6.3-2.2,9.4-7.5,8.2-14c-0.8-4.5-2.6-8.6-4.4-12.7c-0.3-0.6-0.7-0.7-1.3-0.7c-6.4,0-12.8,0-19.2,0c-0.7,0-1.2,0.2-1.5,0.9
		c-1.8,3.9-3.4,8-4.3,12.2c-1.3,6.2,1.3,11.3,6.9,13.9c1.1,0.5,2.2,0.8,3.3,1.1c2.7,0.7,3.7,2.1,3.7,4.8c0,0.7,0,1.4,0,2
		c-0.1,2.3-1.4,3.8-3.6,4.4c-1.1,0.3-2.2,0.2-3.3,0.2c-0.7,0-1.2,0.3-1.2,1.1c0,0.8,0.5,1,1.2,1c5.5,0,11,0,16.5,0
		c0.7,0,1.2-0.2,1.2-1c0-0.8-0.6-1-1.3-1c-1,0-1.9-0.1-2.9-0.1c-1.4-0.2-2.5-0.8-3.3-2.1c0,0-0.1,0-0.1,0c0,0,0.1,0,0.1,0
		c-0.1-0.1-0.1-0.2-0.2-0.3C25.8,38.9,26.3,34.6,26.3,34.5z M25.7,39.6C25.7,39.6,25.7,39.6,25.7,39.6
		C25.7,39.6,25.7,39.6,25.7,39.6z M12.5,24.8c-1.4-2.3-1.6-4.8-1.1-7.4c0.5-2.4,1.2-4.8,2.2-7.1c0.3-1.5,1.1-2.8,1.6-4.2
		c0.1-0.3,0.4-0.3,0.6-0.3c0.9,0,1.8,0,2.7,0c4.8,0,9.6,0,14.3,0c0.8-0.2,1.2,0,1.5,0.8c0.4,1.2,1.1,2.4,1.4,3.6
		c1.2,2.9,2.2,5.8,2.4,9c0.3,4.9-2.4,8.1-6.6,9.8c-1.1,0.5-4.4,1.1-5,1C21.6,30.9,15.1,29.2,12.5,24.8z"/>
</g>
</svg>
