<?xml version="1.0" encoding="utf-8"?>
<!-- Generator: Adobe Illustrator 16.0.0, SVG Export Plug-In . SVG Version: 6.00 Build 0)  -->
<!DOCTYPE svg PUBLIC "-//W3C//DTD SVG 1.1//EN" "http://www.w3.org/Graphics/SVG/1.1/DTD/svg11.dtd">
<svg version="1.1" id="Layer_1" xmlns="http://www.w3.org/2000/svg" xmlns:xlink="http://www.w3.org/1999/xlink" x="0px" y="0px"
	 width="50px" height="50px" viewBox="0 0 50 50" enable-background="new 0 0 50 50" xml:space="preserve">
<g>
	<path fill-rule="evenodd" clip-rule="evenodd" fill="#FFEF7D" d="M37.4,3.7c-1.6,0-3.3,0-4.9,0c-2.4,0-4.8,0-7.1,0
		c-0.2,0-0.3,0-0.5,0c-2.2,0-4.4,0-6.6,0c-1.8,0-3.6,0-5.4,0c-1.8,0-2.6,0.8-2.2,2.5c0.2,1.1,0.1,2.2,0.3,3.2
		c0.8,7.4,2.6,14.1,10.4,17.4c1.1,0.5,1.7,1.2,0.6,2.5c-1.6,2.1-1.5,3.6-0.1,5.4c0.6,0.8,1,1.6,1.1,2.3v1.4
		c-0.3,1.3-1.3,2.3-3.1,2.9c-2,0.6-4.1,1.1-6.1,1.6c-0.6,0.1-1.1,0.4-1,1.1c0.1,0.7,0.6,0.9,1.2,0.9c0.3,0,0.5,0,0.8,0
		c0.1,0,0.2,0,0.2,0c2.8,0,5.7,0,8.5,0c4,0,8.1,0,12.1,0c0,0,0.1,0,0.1,0c0.4,0,0.7,0,1.1,0c0.6-0.1,1.1-0.3,1.1-1
		c0-0.6-0.4-0.8-0.9-0.9c-2.1-0.5-4.2-1.1-6.3-1.7c-3.1-0.8-4.1-3.8-2-6.4c1.5-1.9,1.7-3.5,0.1-5.4c-1.4-1.6-0.6-2.3,0.8-2.9
		c5.4-2.3,7.9-6.8,9.3-12.1c0.8-2.7,0.7-5.5,0.9-8.3C39.9,4.3,39.5,3.7,37.4,3.7z M26.9,41.7L26.9,41.7
		C26.9,41.6,26.9,41.6,26.9,41.7L26.9,41.7z"/>
	<g>
		<defs>
			<path id="SVGID_1_" d="M37.4,3.7c-1.6,0-3.3,0-4.9,0c-2.4,0-4.8,0-7.1,0c-0.2,0-0.3,0-0.5,0c-2.2,0-4.4,0-6.6,0
				c-1.8,0-3.6,0-5.4,0c-1.8,0-2.6,0.8-2.2,2.5c0.2,1.1,0.1,2.2,0.3,3.2c0.8,7.4,2.6,14.1,10.4,17.4c1.1,0.5,1.7,1.2,0.6,2.5
				c-1.6,2.1-1.5,3.6-0.1,5.4c0.6,0.8,1,1.6,1.1,2.3v1.4c-0.3,1.3-1.3,2.3-3.1,2.9c-2,0.6-4.1,1.1-6.1,1.6c-0.6,0.1-1.1,0.4-1,1.1
				c0.1,0.7,0.6,0.9,1.2,0.9c0.3,0,0.5,0,0.8,0c0.1,0,0.2,0,0.2,0c2.8,0,5.7,0,8.5,0c4,0,8.1,0,12.1,0c0,0,0.1,0,0.1,0
				c0.4,0,0.7,0,1.1,0c0.6-0.1,1.1-0.3,1.1-1c0-0.6-0.4-0.8-0.9-0.9c-2.1-0.5-4.2-1.1-6.3-1.7c-3.1-0.8-4.1-3.8-2-6.4
				c1.5-1.9,1.7-3.5,0.1-5.4c-1.4-1.6-0.6-2.3,0.8-2.9c5.4-2.3,7.9-6.8,9.3-12.1c0.8-2.7,0.7-5.5,0.9-8.3
				C39.9,4.3,39.5,3.7,37.4,3.7z M26.9,41.7L26.9,41.7C26.9,41.6,26.9,41.6,26.9,41.7L26.9,41.7z"/>
		</defs>
		<clipPath id="SVGID_2_">
			<use xlink:href="#SVGID_1_"  overflow="visible"/>
		</clipPath>
		<rect x="6.6" y="3.7" clip-path="url(#SVGID_2_)" fill="#FFFFFF" width="37.2" height="8.6"/>
	</g>
	<path fill-rule="evenodd" clip-rule="evenodd" d="M37.4,3.7c-1.6,0-3.3,0-4.9,0c-2.4,0-4.8,0-7.1,0c-0.2,0-0.3,0-0.5,0
		c-2.2,0-4.4,0-6.6,0c-1.8,0-3.6,0-5.4,0c-1.8,0-2.6,0.8-2.2,2.5c0.2,1.1,0.1,2.2,0.3,3.2c0.8,7.4,2.6,14.1,10.4,17.4
		c1.1,0.5,1.7,1.2,0.6,2.5c-1.6,2.1-1.5,3.6-0.1,5.4c0.6,0.8,1,1.6,1.1,2.3v1.4c-0.3,1.3-1.3,2.3-3.1,2.9c-2,0.6-4.1,1.1-6.1,1.6
		c-0.6,0.1-1.1,0.4-1,1.1c0.1,0.7,0.6,0.9,1.2,0.9c0.3,0,0.5,0,0.8,0c0.1,0,0.2,0,0.2,0c2.8,0,5.7,0,8.5,0c4,0,8.1,0,12.1,0
		c0,0,0.1,0,0.1,0c0.4,0,0.7,0,1.1,0c0.6-0.1,1.1-0.3,1.1-1c0-0.6-0.4-0.8-0.9-0.9c-2.1-0.5-4.2-1.1-6.3-1.7c-3.1-0.8-4.1-3.8-2-6.4
		c1.5-1.9,1.7-3.5,0.1-5.4c-1.4-1.6-0.6-2.3,0.8-2.9c5.4-2.3,7.9-6.8,9.3-12.1c0.8-2.7,0.7-5.5,0.9-8.3C39.9,4.3,39.5,3.7,37.4,3.7z
		 M26.9,41.7L26.9,41.7C26.9,41.6,26.9,41.6,26.9,41.7L26.9,41.7z M37.6,6.1c-0.1,0.9-0.2,1.8-0.2,2.7c-0.1,1.8-0.2,3.6-0.7,5.2
		c-0.8,2.7-1.7,4.9-2.9,6.6c-1.4,1.9-3.1,3.3-5.3,4.2c-0.5,0.2-1.5,0.6-2.1,1.5H24c-0.4-0.6-1-1-1.9-1.4c-3.1-1.3-5.3-3.3-6.7-6.2
		c-0.8-1.6-1.8-4.1-2.4-9.5c0-0.4-0.1-0.8-0.1-1.2c0-0.7-0.1-1.4-0.2-2.2c0,0,0-0.1,0-0.1c0.1,0,0.2,0,0.3,0c1.6,0,3.3,0,5.4,0
		c1.1,0,2.2,0,3.3,0c1.1,0,2.2,0,3.3,0h0.5c1.1,0,2.2,0,3.3,0c1.3,0,2.6,0,3.9,0c1.9,0,3.5,0,4.9,0c0.1,0,0.2,0,0.2,0
		C37.6,5.9,37.6,6,37.6,6.1z"/>
</g>
</svg>
