<?xml version="1.0" encoding="utf-8"?>
<!-- Generator: Adobe Illustrator 16.0.0, SVG Export Plug-In . SVG Version: 6.00 Build 0)  -->
<!DOCTYPE svg PUBLIC "-//W3C//DTD SVG 1.1//EN" "http://www.w3.org/Graphics/SVG/1.1/DTD/svg11.dtd">
<svg version="1.1" id="Layer_1" xmlns="http://www.w3.org/2000/svg" xmlns:xlink="http://www.w3.org/1999/xlink" x="0px" y="0px"
	 width="67.2px" height="45px" viewBox="0 0 67.2 45" enable-background="new 0 0 67.2 45" xml:space="preserve">
<g>
	
		<image overflow="visible" opacity="0.7" width="216" height="245" xlink:href="4A638F91CE0CBE4A.png"  transform="matrix(0.24 0 0 0.24 11.1294 -3.8301)">
	</image>
	<g>
		<path fill="#31C3F2" d="M50.9,19c0-9.3-7.6-16.9-16.9-16.9c-9.3,0-16.9,7.6-16.9,16.9c0,5.3,3,9.9,6.3,13.2l10.6,10.6l11.7-11.7
			l0,0C48.9,28,50.9,23.8,50.9,19z"/>
	</g>
</g>
<circle fill="#FFFFFF" cx="34" cy="18.9" r="13.2"/>
<circle opacity="0.3" fill="#FFFFFF" stroke="#000000" stroke-miterlimit="10" cx="34" cy="18.9" r="13.2"/>
<g>
	<defs>
		<polygon id="SVGID_1_" points="23.4,20.8 25.6,18.4 23.8,14.9 30.1,9.1 36.1,9.1 41,10.5 42.7,14.9 41,18.1 43.1,20.8 43.1,25.6 
			35.8,25.6 26.4,26.3 		"/>
	</defs>
	<clipPath id="SVGID_2_">
		<use xlink:href="#SVGID_1_"  overflow="visible"/>
	</clipPath>
	<g clip-path="url(#SVGID_2_)">
		<g>
			<path fill="#FFFFFF" d="M18.1,29.5c0-7.5,0-15.1,0-22.6c10.7,0,21.5,0,32.2,0c0,10.8,0,21.5,0,32.3c-10.7,0-21.5,0-32.2,0
				c0-2.7,0-5.4,0-8.1c0.1-0.1,0.3-0.2,0.3-0.3c0-0.2,0.1-0.3,0.3-0.4c0.2-0.1,0.4-0.1,0.6,0.2c0,0.1,0.2,0.1,0.4,0.1
				c-0.3-0.7-0.6-1.2-1-1.8c-0.1-0.1-0.2-0.1-0.3-0.1c-0.1,0-0.2,0.2-0.2,0.3C18.1,29.2,18.1,29.3,18.1,29.5z M30.3,18.2
				c0.3-0.2,0.7-0.3,1-0.5c1.3-0.9,1.6-2.6,0.6-3.9c-1.2-1.4-3.9-1.6-5.3-0.4c-0.6,0.6-0.9,1.3-0.7,2.1c0.1,0.4,0.3,0.7,0.8,0.8
				c0.4,0.1,0.7-0.1,0.9-0.4c0.2-0.4,0.1-0.7-0.2-1.1c-0.1-0.1-0.2-0.2-0.3-0.3c-0.3-0.3-0.3-0.6,0.1-0.8c0.7-0.5,1.5-0.6,2.3-0.4
				c0.6,0.1,1,0.5,1.2,1.1c0.1,0.5,0.2,0.9,0.2,1.4c0,1.6-0.7,2.3-2.3,2.2c-0.3,0-0.6,0-0.9,0c-0.1,0-0.3,0.2-0.3,0.3
				c0,0.1,0.2,0.3,0.3,0.4c0.2,0,0.5,0,0.8,0c1.4-0.2,2.4,0.3,2.6,1.6c0.1,0.4,0.2,0.8,0.1,1.2c-0.1,0.6-0.2,1.2-0.4,1.7
				c-0.7,1.1-3.2,1.3-4.1,0.2c-0.4-0.4-0.3-0.6,0.1-0.9c0.5-0.3,0.7-0.8,0.5-1.3c-0.2-0.4-0.5-0.7-1-0.6c-0.5,0.1-0.9,0.5-1,1.1
				c-0.1,1.2,0.4,2.1,1.5,2.6c1.4,0.6,2.8,0.6,4.2,0c1.3-0.6,2-1.7,1.9-3.1c-0.1-1.4-0.9-2.2-2.1-2.7C30.6,18.3,30.4,18.3,30.3,18.2
				z M39.6,18.2c0.3-0.2,0.6-0.3,0.8-0.5c1.5-1,1.7-2.9,0.4-4.2c-1-0.9-2.2-1-3.4-0.9c-0.8,0.1-1.5,0.5-2,1.2
				c-0.4,0.6-0.6,1.3-0.3,2c0.2,0.5,0.8,0.7,1.3,0.4c0.4-0.2,0.5-0.8,0.2-1.2c-0.1-0.1-0.2-0.3-0.3-0.4c-0.3-0.4-0.3-0.6,0.1-0.9
				c0.7-0.5,1.5-0.5,2.3-0.4c0.6,0.1,1.1,0.5,1.2,1.2c0.1,0.5,0.2,0.9,0.2,1.4c0,1.5-0.8,2.2-2.3,2.1c-0.3,0-0.6,0-0.9,0
				c-0.1,0-0.3,0.2-0.3,0.3c0,0.1,0.2,0.3,0.3,0.4c0.2,0,0.5,0,0.8,0c1.4-0.2,2.4,0.3,2.6,1.6c0.1,0.7,0.1,1.4,0,2.1
				c-0.1,0.6-0.4,1.1-0.9,1.4c-1,0.5-2.1,0.5-3.1,0c-0.8-0.4-0.8-0.9-0.1-1.4c0,0,0.1-0.1,0.1-0.1c0.4-0.4,0.4-1.1,0-1.5
				c-0.4-0.4-1.1-0.3-1.4,0.2c-0.1,0.2-0.2,0.4-0.3,0.7c-0.1,1.1,0.3,2,1.2,2.5c1.5,0.8,3,0.8,4.5,0.1c1.3-0.6,1.9-1.7,1.8-3.1
				c-0.1-1.3-0.9-2.2-2.1-2.6C39.9,18.4,39.8,18.3,39.6,18.2z M36,26.8c-0.1,0-0.1,0.1-0.2,0.1c0.1,0.6,0.2,1.2,0.4,1.8
				c0,0.1,0.2,0.3,0.3,0.3c0.1,0,0.2-0.1,0.3-0.3c0.1-0.3,0.2-0.6,0.3-1c0.1,0.5,0.1,0.8,0.2,1.2c0,0.1,0.1,0.2,0.2,0.2
				c0.1,0,0.3-0.1,0.3-0.2c0.2-0.6,0.4-1.2,0.6-1.8c-0.5-0.2-0.5,0.3-0.5,0.5c-0.1,0.3-0.2,0.5-0.3,0.8c-0.1-0.4-0.2-0.7-0.3-1.1
				c0-0.1-0.1-0.2-0.2-0.3C37,27,36.9,27,36.9,27.2c-0.1,0.3-0.2,0.7-0.3,1C36.2,27.7,36.5,27.1,36,26.8z M29.5,29
				c0.4,0,0.7,0,1-0.1c0.3,0,0.6-0.2,0.5-0.6c-0.1-0.4-0.2-0.7-0.1-1.1c0-0.1-0.3-0.3-0.5-0.4c-0.3-0.1-0.6,0-1,0
				C29.4,27.6,29.4,28.3,29.5,29z M41.7,29.4c0.1-0.7,0.2-1.3,0.2-1.9c0-0.1-0.1-0.2-0.2-0.3c-0.1,0.1-0.2,0.2-0.2,0.3
				c-0.1,0.3-0.1,0.7-0.1,1c-0.4-0.4-0.3-1.2-1.1-1.5c-0.1,0.7-0.2,1.3-0.2,1.9c0,0.1,0.1,0.2,0.3,0.4c0.1-0.6,0.1-1,0.2-1.5
				C41,28.4,40.9,29.1,41.7,29.4z M32.8,28c0,0,0.1,0,0.1,0c0-0.3,0.2-0.6,0.1-0.9c-0.1-0.4-0.4-0.4-0.8-0.4c-0.2,0-0.4,0-0.6,0
				c0,0.6,0,1.2,0,1.8c0,0.3,0.2,0.3,0.4,0.2c0-0.3,0-0.5,0-0.8c0.5-0.1,0.5,0.3,0.6,0.5c0.1,0.2,0.2,0.4,0.6,0.3
				C33.1,28.5,33,28.3,32.8,28z M22.5,30c0,0,0.1-0.1,0.1-0.1c0-0.3-0.1-0.5-0.1-0.8c0.4-0.2,0.5,0.2,0.7,0.4s0.3,0.4,0.6,0.1
				c-0.2-0.3-0.4-0.5-0.5-0.7c0.1,0,0.1,0,0.2,0c0-0.3,0.1-0.6,0-0.8c-0.1-0.3-0.5-0.3-0.7-0.3c-0.2,0-0.5,0.1-0.8,0.1
				c0.1,0.6,0.2,1.3,0.3,1.9C22.3,29.9,22.4,30,22.5,30z M49.6,29.5c0-0.6-0.3-0.9-0.8-1c-0.5,0-1,0.5-1,1.2c0,0.5,0.3,0.9,0.8,1
				C49.2,30.7,49.6,30.2,49.6,29.5z M44,28.2c0-0.1,0.1-0.1,0.1-0.2c-0.2-0.1-0.3-0.3-0.5-0.4c-0.5-0.2-0.9,0-1.1,0.5
				c-0.3,0.7-0.1,1.3,0.4,1.5c0.1,0,0.2,0,0.3,0c0.2,0,0.4,0,0.7,0c0-0.3,0.1-0.6,0.2-1c-0.3,0-0.5,0-0.8,0c0.1,0.1,0.2,0.3,0.3,0.5
				c-0.2,0.1-0.4,0.2-0.5,0.1c-0.1,0-0.3-0.3-0.3-0.4c0-0.2,0-0.5,0.1-0.8c0.1-0.3,0.4-0.4,0.7-0.1C43.8,28.1,43.9,28.1,44,28.2z
				 M24.4,29.6c0.9,0.1,1.4-0.1,1.3-0.5c-0.2,0-0.4,0.1-0.6,0.1c-0.1,0-0.3-0.1-0.4-0.2c-0.1-0.2,0.1-0.3,0.3-0.3
				c0.1,0,0.2-0.1,0.4-0.2c0,0,0-0.1-0.1-0.1c-0.2,0-0.4,0-0.7,0c0-0.1,0-0.2,0-0.2c0-0.1,0-0.1,0-0.2c0.9-0.2,0.9-0.2,0.8-0.5
				c-0.4,0.1-0.8,0.1-1.3,0.2C24.2,28.3,24.3,28.9,24.4,29.6z M33.9,26.8c0,0.7,0,1.4,0,2.1c0.4,0,0.8,0,1.1,0
				c0.1,0,0.2-0.1,0.2-0.2c-0.1,0-0.2-0.1-0.2-0.1c-0.2,0-0.5,0-0.7,0c0-0.2,0-0.4,0-0.5c0.2-0.2,0.7,0.1,0.7-0.4
				c-0.3,0-0.5,0-0.7,0c0-0.5,0-0.5,0.3-0.5c0.1,0,0.3,0,0.4,0c0.1,0,0.1-0.1,0.2-0.2c-0.1-0.1-0.1-0.1-0.2-0.1
				C34.7,26.8,34.3,26.8,33.9,26.8z M27.4,27.6c0-0.1,0-0.1,0-0.2c-0.2-0.3-0.6-0.4-0.9-0.2c-0.2,0.1-0.4,0.3-0.4,0.5
				c0,0.4,0.3,0.5,0.7,0.6c0,0,0.1,0,0.1,0c0.1,0.1,0.3,0.2,0.4,0.3c0,0-0.1,0.2-0.1,0.2c-0.2,0-0.3,0-0.5,0c-0.2,0-0.3,0-0.6-0.1
				c0.4,0.6,0.7,0.6,1.1,0.4c0.2-0.1,0.4-0.4,0.4-0.6c0.1-0.5-0.3-0.5-0.7-0.7c0,0-0.1,0-0.1,0c-0.1-0.1-0.2-0.2-0.3-0.3
				c0.2,0,0.3-0.1,0.5-0.1C27.1,27.6,27.3,27.6,27.4,27.6z M47.3,29.7c-0.2,0-0.4,0-0.5,0.1c-0.4,0.2-0.7,0-0.6-0.4
				c0-0.2,0.1-0.5,0.2-0.7c0.2-0.4,0.4-0.4,0.7-0.1c0.1,0.1,0.2,0.1,0.3,0.1c0-0.1,0-0.3,0-0.4c-0.3-0.4-1-0.4-1.3,0
				c-0.2,0.4-0.3,0.8-0.3,1.2c0,0.4,0.3,0.5,0.6,0.6C46.8,30.3,47.1,30.2,47.3,29.7z M21.3,28.7c0-0.1,0-0.2,0.1-0.3
				c-0.3-0.1-0.5-0.2-0.8-0.2c-0.3,0-0.7,0.2-0.6,0.6c0,0.4,0.1,0.8,0.2,1.2c0.1,0.3,0.5,0.4,0.8,0.3c0.3-0.1,0.6-0.3,0.6-0.8
				c-0.2,0.1-0.3,0.1-0.4,0.2c-0.3,0.4-0.6,0.3-0.8-0.2c-0.1-0.2-0.1-0.4-0.1-0.7c0-0.3,0.3-0.5,0.6-0.3
				C21,28.7,21.1,28.7,21.3,28.7z M38.5,31.8c0,0.5,0,0.8,0,1.3c0.3-0.1,0.6-0.1,0.7-0.2c0.1-0.2,0.1-0.6,0-0.8
				C39.1,31.9,38.8,31.9,38.5,31.8z M39.1,27c0,0.6-0.1,1.2-0.1,1.8c0,0.3,0.1,0.4,0.4,0.3c0.1-0.6,0.1-1.2,0.2-1.7
				C39.5,27,39.4,26.9,39.1,27z M36.8,33C36.8,33,36.8,33,36.8,33c0-0.2-0.1-0.3,0-0.5c0.1-0.6,0.1-0.7-0.6-0.6c0,0.3,0,0.7,0,1
				c0,0,0,0,0.1,0c0-0.1,0.1-0.3,0.1-0.6C36.5,32.6,36.7,32.8,36.8,33z M27.8,32.9c0.3-0.4,0.6-0.3,0.9,0c-0.1-0.4-0.2-0.7-0.3-1.1
				c-0.1,0-0.1,0-0.2,0C28,32.2,27.9,32.6,27.8,32.9z M32.3,32.5c-0.1-0.4-0.2-0.7-0.6-0.7c-0.4,0-0.4,0.3-0.4,0.6
				c0,0.3,0.1,0.6,0.5,0.6C32,33,32.2,32.7,32.3,32.5z M29.7,33C29.8,33,29.8,33,29.7,33c0.1-0.4,0.1-0.8,0.1-1.1c0,0-0.1,0-0.1,0
				c0,0.2-0.1,0.4-0.1,0.6c-0.2-0.3-0.3-0.5-0.5-0.7c0,0-0.1,0-0.1,0.1c0,0.3,0,0.7,0,1c0,0,0,0,0.1,0c0-0.2,0-0.4,0.1-0.7
				C29.4,32.5,29.6,32.8,29.7,33z M35,33c0.2,0,0.5,0,0.7,0c0,0,0-0.1,0-0.1c-0.2,0-0.3,0-0.6-0.1c0.2-0.2,0.3-0.3,0.4-0.4
				c-0.1,0-0.2-0.1-0.3-0.2c0.2-0.1,0.3-0.2,0.5-0.3c-0.2,0-0.4,0-0.6,0C35,32.2,35,32.6,35,33z M44.4,18.1
				c-0.1-0.4-0.1-0.7-0.5-0.7c-0.4,0-0.4,0.3-0.4,0.6c0,0.3,0,0.6,0.4,0.6C44.1,18.5,44.2,18.2,44.4,18.1z M23.1,18.6
				c0,0,0,0.1,0,0.1c0.2,0.1,0.3,0.1,0.5,0.1c0.1,0,0.3-0.2,0.3-0.2c0-0.1-0.1-0.3-0.2-0.4c0,0-0.1,0-0.2-0.1c0-0.1-0.1-0.1-0.1-0.2
				c0.1,0,0.2,0,0.2,0c0.1,0,0.1,0,0.2,0.1c0,0,0-0.1,0-0.1c-0.2,0-0.3-0.1-0.5-0.1c-0.1,0-0.2,0.2-0.2,0.2c0.1,0.1,0.2,0.3,0.3,0.4
				c0.1,0.1,0.2,0.1,0.3,0.2c0,0.1,0,0.1-0.1,0.2C23.5,18.7,23.3,18.6,23.1,18.6z M31.1,32.8C31,32.8,31,32.8,31.1,32.8
				c-0.2-0.1-0.5,0-0.5-0.1c-0.1-0.2-0.1-0.4-0.1-0.6c0.1-0.1,0.3-0.1,0.7-0.2c-0.3-0.1-0.5-0.2-0.6-0.1c-0.2,0.1-0.3,0.4-0.3,0.6
				c0,0.2,0.1,0.4,0.3,0.5C30.6,33.1,30.9,32.9,31.1,32.8z M40.4,32.8C40.4,32.8,40.4,32.8,40.4,32.8c-0.2-0.1-0.5,0-0.6-0.1
				c-0.1-0.2,0-0.4,0-0.6c0.2,0,0.4,0,0.5,0c-0.1-0.1-0.4-0.3-0.5-0.2c-0.2,0.1-0.3,0.4-0.3,0.6c0,0.2,0.2,0.4,0.3,0.5
				C40,33.1,40.3,32.9,40.4,32.8z M27.1,33c0.1,0,0.1,0,0.2,0c0.1-0.4,0.2-0.7,0.3-1.1c0,0-0.1,0-0.1,0c-0.1,0.2-0.2,0.5-0.3,0.8
				c-0.1-0.3-0.2-0.6-0.3-0.8c0,0-0.1,0-0.1,0C26.8,32.3,27,32.6,27.1,33z M33.4,31.9c0,0-0.1,0-0.1,0c0,0.2,0,0.4,0,0.6
				c0,0.1-0.2,0.2-0.3,0.3c-0.1-0.1-0.2-0.2-0.2-0.3c0-0.2,0-0.4,0-0.6c0,0-0.1,0-0.1,0c0,0.3,0,0.6,0,0.9c0,0.1,0.3,0.2,0.4,0.2
				c0.1,0,0.3-0.2,0.3-0.3C33.5,32.5,33.4,32.2,33.4,31.9z M34.2,32.7c-0.1-0.3-0.2-0.6-0.3-0.8c0,0-0.1,0-0.1,0.1
				c0.1,0.4,0.2,0.7,0.4,1.1c0.1,0,0.1,0,0.2,0c0.1-0.4,0.2-0.7,0.3-1.1c0,0-0.1,0-0.1,0C34.4,32.1,34.4,32.4,34.2,32.7z M46,17.9
				c0.1,0.1,0.2,0.2,0.3,0.3c-0.2,0-0.4,0.1-0.5,0.1c0.2,0.1,0.4,0.1,0.6,0.1c0.1,0,0.1-0.3,0.1-0.5c0-0.1,0-0.2,0-0.3
				c0-0.1-0.1-0.3-0.1-0.3c-0.1,0-0.3,0-0.4,0c0,0,0,0,0,0.1c0.1,0,0.3,0,0.4,0.1C46.2,17.7,46.1,17.8,46,17.9z M42.5,17.6
				c0.2,0,0.3,0,0.4,0c-0.1,0.1-0.1,0.3-0.2,0.4c-0.1,0.2-0.2,0.3-0.4,0.5c0.3,0,0.6,0,0.8,0c0,0,0,0,0-0.1c-0.1,0-0.3-0.1-0.5-0.1
				c0.2-0.1,0.3-0.2,0.4-0.3c0.1-0.1,0.2-0.3,0.1-0.4C43,17.3,42.7,17.3,42.5,17.6z M22.1,17.8c0,0.4,0,0.7,0,1.1c0.2,0,0.4,0,0.6,0
				c0,0,0-0.1,0-0.1c-0.2,0-0.3,0-0.7-0.1c0.2-0.2,0.3-0.3,0.4-0.4c-0.1-0.1-0.2-0.2-0.3-0.2c0.2-0.1,0.3-0.2,0.5-0.3
				C22.5,17.8,22.4,17.8,22.1,17.8z M44.9,17.5c0,0.3,0,0.7,0.1,1c0,0,0.1,0,0.2,0c0-0.2,0-0.5,0-0.7C45.1,17.4,45.1,17.4,44.9,17.5
				z M24.5,19c0.2-0.5-0.1-0.9,0.3-1.2c-0.2,0-0.4,0-0.5,0C24.4,18.1,24.4,18.5,24.5,19z"/>
			<path fill-rule="evenodd" clip-rule="evenodd" d="M18.1,29.5c0-0.1,0-0.3,0.1-0.4c0-0.1,0.1-0.2,0.2-0.3c0.1,0,0.3,0,0.3,0.1
				c0.3,0.5,0.7,1.1,1,1.8c-0.1,0-0.3,0-0.4-0.1c-0.1-0.3-0.3-0.2-0.6-0.2c-0.2,0.1-0.3,0.2-0.3,0.4c0,0.1-0.2,0.2-0.3,0.3
				C18.1,30.5,18.1,30,18.1,29.5z M18.6,29.3C18.6,29.3,18.5,29.3,18.6,29.3c-0.1,0.3-0.1,0.5-0.1,0.8c0.1,0,0.3-0.1,0.5-0.1
				C18.8,29.7,18.7,29.5,18.6,29.3z"/>
			<path fill-rule="evenodd" clip-rule="evenodd" d="M30.3,18.2c0.2,0.1,0.3,0.1,0.4,0.2c1.3,0.5,2.1,1.3,2.1,2.7
				c0.1,1.4-0.5,2.5-1.9,3.1c-1.4,0.6-2.8,0.6-4.2,0c-1.1-0.5-1.6-1.4-1.5-2.6c0.1-0.6,0.4-1,1-1.1c0.4,0,0.8,0.2,1,0.6
				c0.2,0.6,0,1-0.5,1.3c-0.5,0.3-0.5,0.5-0.1,0.9c0.9,1,3.4,0.9,4.1-0.2c0.3-0.5,0.4-1.2,0.4-1.7c0.1-0.4,0-0.8-0.1-1.2
				c-0.3-1.3-1.2-1.8-2.6-1.6c-0.3,0-0.5,0.1-0.8,0c-0.1,0-0.3-0.2-0.3-0.4c0-0.1,0.2-0.3,0.3-0.3c0.3,0,0.6,0,0.9,0
				c1.6,0.1,2.3-0.6,2.3-2.2c0-0.5-0.1-0.9-0.2-1.4c-0.2-0.6-0.6-1-1.2-1.1c-0.8-0.1-1.6-0.1-2.3,0.4c-0.4,0.3-0.4,0.5-0.1,0.8
				c0.1,0.1,0.2,0.2,0.3,0.3c0.3,0.3,0.4,0.7,0.2,1.1c-0.2,0.4-0.5,0.5-0.9,0.4c-0.5-0.1-0.7-0.4-0.8-0.8c-0.1-0.8,0.1-1.5,0.7-2.1
				c1.4-1.3,4.1-1.1,5.3,0.4c1,1.2,0.7,3-0.6,3.9C30.9,17.9,30.6,18,30.3,18.2z"/>
			<path fill-rule="evenodd" clip-rule="evenodd" d="M39.6,18.2c0.2,0.1,0.4,0.1,0.5,0.2c1.2,0.5,2,1.3,2.1,2.6
				c0.1,1.4-0.5,2.5-1.8,3.1c-1.5,0.7-3.1,0.8-4.5-0.1c-1-0.5-1.3-1.4-1.2-2.5c0-0.2,0.1-0.5,0.3-0.7c0.3-0.5,1-0.5,1.4-0.2
				c0.4,0.4,0.4,1.1,0,1.5c0,0-0.1,0.1-0.1,0.1c-0.7,0.5-0.7,1,0.1,1.4c1,0.5,2.1,0.5,3.1,0c0.6-0.3,0.9-0.8,0.9-1.4
				c0.1-0.7,0.1-1.4,0-2.1c-0.2-1.3-1.2-1.8-2.6-1.6c-0.3,0-0.5,0.1-0.8,0c-0.1,0-0.3-0.2-0.3-0.4c0-0.1,0.2-0.3,0.3-0.3
				c0.3,0,0.6,0,0.9,0c1.5,0.1,2.3-0.6,2.3-2.1c0-0.5-0.1-0.9-0.2-1.4c-0.1-0.6-0.6-1-1.2-1.2c-0.8-0.1-1.6-0.1-2.3,0.4
				c-0.4,0.3-0.4,0.5-0.1,0.9c0.1,0.1,0.2,0.2,0.3,0.4c0.3,0.5,0.2,1-0.2,1.2c-0.5,0.3-1.1,0.1-1.3-0.4c-0.3-0.7-0.1-1.4,0.3-2
				c0.5-0.7,1.1-1.1,2-1.2c1.3-0.2,2.5-0.1,3.4,0.9c1.3,1.3,1.1,3.2-0.4,4.2C40.2,17.9,39.9,18,39.6,18.2z"/>
			<path fill-rule="evenodd" clip-rule="evenodd" d="M36,26.8c0.5,0.3,0.2,1,0.6,1.4c0.1-0.4,0.2-0.7,0.3-1c0-0.1,0.2-0.2,0.3-0.3
				c0.1,0.1,0.2,0.2,0.2,0.3c0.1,0.4,0.1,0.7,0.3,1.1c0.1-0.3,0.1-0.5,0.3-0.8c0.1-0.2,0-0.6,0.5-0.5c-0.2,0.6-0.4,1.2-0.6,1.8
				c0,0.1-0.2,0.2-0.3,0.2c-0.1,0-0.2-0.1-0.2-0.2c-0.1-0.3-0.1-0.7-0.2-1.2c-0.1,0.4-0.2,0.7-0.3,1c0,0.1-0.2,0.3-0.3,0.3
				c-0.1,0-0.3-0.1-0.3-0.3c-0.1-0.6-0.3-1.2-0.4-1.8C35.9,26.8,35.9,26.8,36,26.8z"/>
			<path fill-rule="evenodd" clip-rule="evenodd" d="M29.5,29c0-0.7-0.1-1.4-0.1-2.1c0.4,0,0.7,0,1,0c0.2,0,0.5,0.3,0.5,0.4
				c-0.1,0.4,0,0.7,0.1,1.1c0.1,0.4-0.2,0.5-0.5,0.6C30.1,29,29.8,29,29.5,29z M29.8,28.1c0,0.2,0,0.4,0,0.6
				c0.3-0.1,0.7,0.1,0.7-0.4C30.5,27.9,30.1,28.1,29.8,28.1z M29.7,27.2c0.1,0.3,0.1,0.5,0.2,0.5c0.2,0,0.3,0,0.5-0.1
				c0,0,0-0.3,0-0.3C30.2,27.3,30,27.2,29.7,27.2z"/>
			<path fill-rule="evenodd" clip-rule="evenodd" d="M41.7,29.4c-0.7-0.3-0.7-1.1-1.1-1.5c-0.1,0.5-0.1,0.9-0.2,1.5
				c-0.2-0.2-0.3-0.3-0.3-0.4c0.1-0.6,0.1-1.3,0.2-1.9c0.8,0.2,0.6,1,1.1,1.5c0-0.3,0.1-0.7,0.1-1c0-0.1,0.1-0.2,0.2-0.3
				c0.1,0.1,0.2,0.2,0.2,0.3C41.8,28.1,41.8,28.7,41.7,29.4z"/>
			<path fill-rule="evenodd" clip-rule="evenodd" d="M32.8,28c0.1,0.3,0.3,0.5,0.4,0.8c-0.3,0.2-0.4,0-0.6-0.3
				c-0.1-0.2-0.1-0.6-0.6-0.5c0,0.3,0,0.5,0,0.8c-0.2,0.1-0.4,0.1-0.4-0.2c0-0.6,0-1.2,0-1.8c0.2,0,0.4,0,0.6,0c0.3,0,0.7,0,0.8,0.4
				c0.1,0.3-0.1,0.6-0.1,0.9C32.9,28,32.9,28,32.8,28z M32,27.8c0.3-0.1,0.5-0.1,0.6-0.2c0,0,0-0.3,0-0.3c-0.2-0.1-0.4-0.1-0.6-0.2
				C32,27.4,32,27.5,32,27.8z"/>
			<path fill-rule="evenodd" clip-rule="evenodd" d="M22.5,30c-0.1-0.1-0.3-0.1-0.3-0.2c-0.1-0.6-0.2-1.2-0.3-1.9
				c0.3-0.1,0.5-0.1,0.8-0.1c0.3,0,0.6-0.1,0.7,0.3c0.1,0.2,0,0.5,0,0.8c-0.1,0-0.1,0-0.2,0c0.2,0.2,0.4,0.5,0.5,0.7
				c-0.3,0.3-0.4,0.1-0.6-0.1s-0.2-0.6-0.7-0.4c0,0.3,0.1,0.5,0.1,0.8C22.6,30,22.6,30,22.5,30z M22.3,28.2c0,0.3,0.1,0.4,0.1,0.6
				c0.2-0.1,0.4-0.1,0.6-0.2c0,0,0-0.3,0-0.3C22.8,28.2,22.6,28.2,22.3,28.2z"/>
			<path fill-rule="evenodd" clip-rule="evenodd" d="M49.6,29.5c0,0.7-0.4,1.2-1,1.2c-0.5,0-0.9-0.4-0.8-1c0-0.7,0.5-1.3,1-1.2
				C49.3,28.6,49.6,28.9,49.6,29.5z M48.2,29.8c0,0.3,0.2,0.5,0.4,0.5c0.3,0,0.5-0.4,0.5-0.9c0-0.3-0.1-0.5-0.4-0.5
				C48.5,28.9,48.2,29.3,48.2,29.8z"/>
			<path fill-rule="evenodd" clip-rule="evenodd" d="M44,28.2c-0.1-0.1-0.3-0.1-0.4-0.2c-0.3-0.2-0.6-0.2-0.7,0.1
				c-0.1,0.2-0.1,0.5-0.1,0.8c0,0.1,0.2,0.4,0.3,0.4c0.1,0,0.3-0.1,0.5-0.1c-0.1-0.2-0.2-0.3-0.3-0.5c0.2,0,0.5,0,0.8,0
				c-0.1,0.4-0.1,0.7-0.2,1c-0.3,0-0.5,0-0.7,0c-0.1,0-0.2,0-0.3,0c-0.5-0.2-0.7-0.8-0.4-1.5c0.2-0.5,0.6-0.8,1.1-0.5
				c0.2,0.1,0.3,0.3,0.5,0.4C44.1,28,44.1,28.1,44,28.2z"/>
			<path fill-rule="evenodd" clip-rule="evenodd" d="M24.4,29.6c-0.1-0.7-0.2-1.3-0.3-2c0.5-0.1,0.9-0.1,1.3-0.2
				c0.1,0.3,0.1,0.3-0.8,0.5c0,0.1,0,0.1,0,0.2c0,0.1,0,0.1,0,0.2c0.2,0,0.5,0,0.7,0c0,0,0,0.1,0.1,0.1c-0.1,0.1-0.2,0.2-0.4,0.2
				c-0.2,0-0.4,0.1-0.3,0.3c0.1,0.1,0.2,0.2,0.4,0.2c0.2,0,0.4,0,0.6-0.1C25.8,29.5,25.3,29.6,24.4,29.6z"/>
			<path fill-rule="evenodd" clip-rule="evenodd" d="M33.9,26.8c0.4,0,0.8,0,1.2,0c0.1,0,0.1,0.1,0.2,0.1c-0.1,0.1-0.1,0.2-0.2,0.2
				c-0.1,0-0.3,0-0.4,0c-0.4,0-0.4,0-0.3,0.5c0.2,0,0.4,0,0.7,0c0,0.5-0.5,0.2-0.7,0.4c0,0.1,0,0.3,0,0.5c0.3,0,0.5,0,0.7,0
				c0.1,0,0.2,0.1,0.2,0.1c-0.1,0.1-0.2,0.2-0.2,0.2c-0.4,0-0.7,0-1.1,0C33.9,28.2,33.9,27.5,33.9,26.8z"/>
			<path fill-rule="evenodd" clip-rule="evenodd" d="M27.4,27.6c-0.1,0-0.3-0.1-0.4-0.1c-0.2,0-0.3,0.1-0.5,0.1
				c0.1,0.1,0.2,0.2,0.3,0.3c0,0,0.1,0,0.1,0c0.3,0.1,0.7,0.2,0.7,0.7c0,0.2-0.2,0.5-0.4,0.6c-0.4,0.2-0.8,0.1-1.1-0.4
				c0.3,0,0.4,0.1,0.6,0.1c0.2,0,0.3,0,0.5,0c0.1,0,0.1-0.2,0.1-0.2c-0.1-0.1-0.2-0.2-0.4-0.3c0,0-0.1,0-0.1,0
				c-0.3-0.1-0.7-0.2-0.7-0.6c0-0.2,0.2-0.4,0.4-0.5c0.3-0.2,0.7-0.1,0.9,0.2C27.4,27.5,27.4,27.6,27.4,27.6z"/>
			<path fill-rule="evenodd" clip-rule="evenodd" d="M47.3,29.7c-0.3,0.4-0.5,0.6-0.9,0.5c-0.3-0.1-0.7-0.3-0.6-0.6
				c0-0.4,0.1-0.9,0.3-1.2c0.2-0.5,1-0.4,1.3,0c0.1,0.1,0,0.2,0,0.4c-0.1,0-0.2-0.1-0.3-0.1c-0.3-0.3-0.5-0.3-0.7,0.1
				c-0.1,0.2-0.1,0.4-0.2,0.7c0,0.4,0.2,0.6,0.6,0.4C46.9,29.8,47.1,29.8,47.3,29.7z"/>
			<path fill-rule="evenodd" clip-rule="evenodd" d="M21.3,28.7c-0.1,0-0.3,0-0.4-0.1c-0.3-0.1-0.6,0-0.6,0.3c0,0.2,0,0.5,0.1,0.7
				c0.2,0.5,0.5,0.5,0.8,0.2c0.1-0.1,0.2-0.1,0.4-0.2c0,0.5-0.2,0.7-0.6,0.8c-0.3,0.1-0.7,0-0.8-0.3c-0.1-0.4-0.2-0.8-0.2-1.2
				c0-0.4,0.3-0.6,0.6-0.6c0.2,0,0.5,0.1,0.8,0.2C21.3,28.5,21.3,28.6,21.3,28.7z"/>
			<path fill-rule="evenodd" clip-rule="evenodd" d="M38.5,31.8c0.3,0.1,0.6,0.1,0.7,0.2c0.1,0.2,0.1,0.6,0,0.8
				c-0.1,0.1-0.4,0.1-0.7,0.2C38.5,32.6,38.5,32.3,38.5,31.8z"/>
			<path fill-rule="evenodd" clip-rule="evenodd" d="M39.1,27c0.3-0.1,0.4,0,0.4,0.3c-0.1,0.6-0.1,1.1-0.2,1.7
				c-0.3,0.1-0.4,0-0.4-0.3C39,28.2,39,27.6,39.1,27z"/>
			<path fill-rule="evenodd" clip-rule="evenodd" d="M36.8,33c-0.1-0.2-0.2-0.3-0.4-0.6c-0.1,0.3-0.1,0.4-0.1,0.6c0,0,0,0-0.1,0
				c0-0.3,0-0.7,0-1c0.7-0.1,0.7-0.1,0.6,0.6C36.7,32.6,36.8,32.8,36.8,33C36.8,33,36.8,33,36.8,33z"/>
			<path fill-rule="evenodd" clip-rule="evenodd" d="M27.8,32.9c0.1-0.4,0.2-0.7,0.4-1.1c0.1,0,0.1,0,0.2,0c0.1,0.4,0.2,0.7,0.3,1.1
				C28.4,32.6,28.1,32.6,27.8,32.9z"/>
			<path fill-rule="evenodd" clip-rule="evenodd" d="M32.3,32.5C32.2,32.7,32,33,31.8,33c-0.4,0-0.5-0.3-0.5-0.6
				c0-0.3,0.1-0.6,0.4-0.6C32.2,31.9,32.2,32.1,32.3,32.5z M32.2,32.4c-0.2-0.2-0.3-0.3-0.4-0.4c-0.1,0.1-0.3,0.3-0.3,0.4
				c0,0.2,0.2,0.3,0.3,0.5C31.9,32.7,32,32.6,32.2,32.4z"/>
			<path fill-rule="evenodd" clip-rule="evenodd" d="M29.7,33c-0.2-0.2-0.3-0.5-0.5-0.8c0,0.3-0.1,0.5-0.1,0.7c0,0,0,0-0.1,0
				c0-0.3,0-0.7,0-1c0,0,0.1,0,0.1-0.1c0.1,0.2,0.3,0.4,0.5,0.7c0-0.2,0.1-0.4,0.1-0.6c0,0,0.1,0,0.1,0C29.8,32.3,29.8,32.6,29.7,33
				C29.8,33,29.8,33,29.7,33z"/>
			<path fill-rule="evenodd" clip-rule="evenodd" d="M35,33c0-0.4,0-0.8,0-1.1c0.2,0,0.4,0,0.6,0c-0.2,0.1-0.3,0.2-0.5,0.3
				c0.1,0.1,0.2,0.1,0.3,0.2c-0.1,0.1-0.2,0.2-0.4,0.4c0.3,0,0.5,0.1,0.6,0.1c0,0,0,0.1,0,0.1C35.5,33,35.3,33,35,33z"/>
			<path fill-rule="evenodd" clip-rule="evenodd" d="M44.4,18.1c-0.2,0.2-0.3,0.5-0.5,0.5c-0.4,0.1-0.4-0.3-0.4-0.6
				c0-0.2,0-0.6,0.4-0.6C44.3,17.4,44.3,17.7,44.4,18.1z M44.2,18c-0.1-0.2-0.2-0.3-0.3-0.4c-0.1,0.2-0.2,0.3-0.2,0.5
				c0,0.1,0.2,0.3,0.3,0.4C44,18.3,44.1,18.1,44.2,18z"/>
			<path fill-rule="evenodd" clip-rule="evenodd" d="M23.1,18.6c0.2,0,0.3,0.1,0.5,0.1c0-0.1,0-0.1,0.1-0.2
				c-0.1-0.1-0.2-0.1-0.3-0.2c-0.1-0.1-0.2-0.2-0.3-0.4c0,0,0.1-0.2,0.2-0.2c0.2,0,0.3,0,0.5,0.1c0,0,0,0.1,0,0.1
				c-0.1,0-0.1-0.1-0.2-0.1c-0.1,0-0.2,0-0.2,0c0,0.1,0.1,0.2,0.1,0.2c0,0,0.1,0,0.2,0.1c0.1,0.1,0.2,0.2,0.2,0.4
				c0,0.1-0.2,0.2-0.3,0.2c-0.2,0-0.3-0.1-0.5-0.1C23.1,18.7,23.1,18.6,23.1,18.6z"/>
			<path fill-rule="evenodd" clip-rule="evenodd" d="M31.1,32.8c-0.2,0.1-0.4,0.2-0.5,0.1c-0.2-0.1-0.3-0.3-0.3-0.5
				c0-0.2,0.1-0.4,0.3-0.6c0.1-0.1,0.3,0.1,0.6,0.1c-0.3,0.1-0.6,0.1-0.7,0.2c-0.1,0.2,0,0.4,0.1,0.6C30.5,32.8,30.8,32.8,31.1,32.8
				C31,32.8,31,32.8,31.1,32.8z"/>
			<path fill-rule="evenodd" clip-rule="evenodd" d="M40.4,32.8C40.3,32.9,40,33.1,40,33c-0.2-0.1-0.3-0.3-0.3-0.5
				c0-0.2,0.1-0.4,0.3-0.6c0.1-0.1,0.3,0.1,0.5,0.2c-0.2,0-0.4,0-0.5,0c0,0.2,0,0.4,0,0.6C39.9,32.8,40.2,32.8,40.4,32.8
				C40.4,32.8,40.4,32.8,40.4,32.8z"/>
			<path fill-rule="evenodd" clip-rule="evenodd" d="M27.1,33c-0.1-0.4-0.2-0.7-0.4-1.1c0,0,0.1,0,0.1,0c0.1,0.2,0.2,0.5,0.3,0.8
				c0.1-0.3,0.2-0.6,0.3-0.8c0,0,0.1,0,0.1,0c-0.1,0.4-0.2,0.7-0.3,1.1C27.2,33,27.1,33,27.1,33z"/>
			<path fill-rule="evenodd" clip-rule="evenodd" d="M33.4,31.9c0,0.3,0,0.5,0,0.8c0,0.1-0.2,0.3-0.3,0.3c-0.1,0-0.4-0.1-0.4-0.2
				c-0.1-0.3,0-0.6,0-0.9c0,0,0.1,0,0.1,0c0,0.2,0,0.4,0,0.6c0,0.1,0.2,0.2,0.2,0.3c0.1-0.1,0.2-0.2,0.3-0.3c0-0.2,0-0.4,0-0.6
				C33.4,31.9,33.4,31.9,33.4,31.9z"/>
			<path fill-rule="evenodd" clip-rule="evenodd" d="M34.2,32.7c0.1-0.3,0.2-0.6,0.3-0.8c0,0,0.1,0,0.1,0c-0.1,0.4-0.2,0.7-0.3,1.1
				c-0.1,0-0.1,0-0.2,0c-0.1-0.4-0.2-0.7-0.4-1.1c0,0,0.1,0,0.1-0.1C34,32.1,34.1,32.4,34.2,32.7z"/>
			<path fill-rule="evenodd" clip-rule="evenodd" d="M46,17.9c0.1-0.1,0.1-0.2,0.2-0.3c-0.1,0-0.3,0-0.4-0.1c0,0,0,0,0-0.1
				c0.1,0,0.3-0.1,0.4,0c0.1,0,0.1,0.2,0.1,0.3c0,0.1,0,0.2,0,0.3c0,0.2,0,0.4-0.1,0.5c-0.2,0.1-0.4,0-0.6-0.1
				c0.2,0,0.4-0.1,0.5-0.1C46.2,18.1,46.1,18,46,17.9z"/>
			<path fill-rule="evenodd" clip-rule="evenodd" d="M42.5,17.6c0.2-0.3,0.5-0.3,0.6,0c0,0.1-0.1,0.3-0.1,0.4
				c-0.1,0.1-0.2,0.2-0.4,0.3c0.2,0,0.3,0.1,0.5,0.1c0,0,0,0,0,0.1c-0.2,0-0.4,0-0.8,0c0.2-0.2,0.3-0.3,0.4-0.5
				c0.1-0.1,0.1-0.3,0.2-0.4C42.8,17.6,42.6,17.6,42.5,17.6z"/>
			<path fill-rule="evenodd" clip-rule="evenodd" d="M22.1,17.8c0.2,0,0.4,0,0.6,0c-0.2,0.1-0.3,0.2-0.5,0.3
				c0.1,0.1,0.2,0.2,0.3,0.2c-0.1,0.1-0.2,0.2-0.4,0.4c0.3,0,0.5,0.1,0.7,0.1c0,0,0,0.1,0,0.1c-0.2,0-0.4,0-0.6,0
				C22.1,18.5,22.1,18.2,22.1,17.8z"/>
			<path fill-rule="evenodd" clip-rule="evenodd" d="M44.9,17.5c0.2,0,0.2,0,0.2,0.4c0,0.2,0,0.4,0,0.7c-0.1,0-0.2,0-0.2,0
				C44.9,18.2,44.9,17.8,44.9,17.5z"/>
			<path fill-rule="evenodd" clip-rule="evenodd" d="M24.5,19c-0.1-0.5-0.1-0.8-0.2-1.2c0.1,0,0.3,0,0.5,0
				C24.4,18.1,24.7,18.5,24.5,19z"/>
			<path fill-rule="evenodd" clip-rule="evenodd" fill="#FFFFFF" d="M18.6,29.3c0.1,0.2,0.2,0.4,0.4,0.6c-0.2,0.1-0.3,0.1-0.5,0.1
				C18.5,29.8,18.5,29.6,18.6,29.3C18.5,29.3,18.6,29.3,18.6,29.3z"/>
			<path fill-rule="evenodd" clip-rule="evenodd" fill="#FFFFFF" d="M29.8,28.1c0.3,0,0.7-0.2,0.7,0.3c0,0.4-0.4,0.3-0.7,0.4
				C29.8,28.5,29.8,28.3,29.8,28.1z"/>
			<path fill-rule="evenodd" clip-rule="evenodd" fill="#FFFFFF" d="M29.7,27.2c0.3,0.1,0.5,0.1,0.7,0.2c0,0,0,0.2,0,0.3
				c-0.2,0.1-0.3,0.1-0.5,0.1C29.8,27.7,29.8,27.4,29.7,27.2z"/>
			<path fill-rule="evenodd" clip-rule="evenodd" fill="#FFFFFF" d="M32,27.8c0-0.3,0-0.4,0-0.7c0.2,0,0.4,0.1,0.6,0.2
				c0,0,0,0.3,0,0.3C32.5,27.6,32.3,27.7,32,27.8z"/>
			<path fill-rule="evenodd" clip-rule="evenodd" fill="#FFFFFF" d="M22.3,28.2c0.3,0,0.5,0,0.7,0.1c0,0,0.1,0.3,0,0.3
				c-0.2,0.1-0.4,0.2-0.6,0.2C22.4,28.6,22.4,28.4,22.3,28.2z"/>
			<path fill-rule="evenodd" clip-rule="evenodd" fill="#FFFFFF" d="M48.2,29.8c0-0.5,0.2-0.9,0.6-0.9c0.3,0,0.4,0.2,0.4,0.5
				c0,0.5-0.2,0.9-0.5,0.9C48.4,30.4,48.2,30.2,48.2,29.8z"/>
			<path fill-rule="evenodd" clip-rule="evenodd" fill="#FFFFFF" d="M32.2,32.4c-0.2,0.2-0.3,0.3-0.4,0.4c-0.1-0.2-0.2-0.3-0.3-0.5
				c0-0.1,0.2-0.3,0.3-0.4C31.9,32.1,32,32.3,32.2,32.4z"/>
			<path fill-rule="evenodd" clip-rule="evenodd" fill="#FFFFFF" d="M44.2,18c-0.1,0.2-0.2,0.3-0.3,0.5c-0.1-0.1-0.3-0.3-0.3-0.4
				c0-0.2,0.2-0.3,0.2-0.5C44,17.7,44.1,17.8,44.2,18z"/>
		</g>
	</g>
</g>
</svg>
