<?xml version="1.0" encoding="utf-8"?>
<!-- Generator: Adobe Illustrator 16.0.0, SVG Export Plug-In . SVG Version: 6.00 Build 0)  -->
<!DOCTYPE svg PUBLIC "-//W3C//DTD SVG 1.1//EN" "http://www.w3.org/Graphics/SVG/1.1/DTD/svg11.dtd">
<svg version="1.1" id="Layer_1" xmlns="http://www.w3.org/2000/svg" xmlns:xlink="http://www.w3.org/1999/xlink" x="0px" y="0px"
	 width="67.2px" height="45px" viewBox="0 0 67.2 45" enable-background="new 0 0 67.2 45" xml:space="preserve">
<g>
	<g>
		
			<image overflow="visible" opacity="0.7" width="216" height="245" xlink:href="A372AE99AA92BA45.png"  transform="matrix(0.24 0 0 0.24 11.1294 -3.8301)">
		</image>
		<g>
			<path fill="#31C3F2" d="M50.9,19c0-9.3-7.6-16.9-16.9-16.9c-9.3,0-16.9,7.6-16.9,16.9c0,5.3,3,9.9,6.3,13.2l10.6,10.6l11.7-11.7
				l0,0C48.9,28,50.9,23.8,50.9,19z"/>
		</g>
	</g>
	<circle fill="#FFFFFF" cx="34" cy="18.9" r="13.2"/>
	<circle opacity="0.3" fill="#FFFFFF" stroke="#000000" stroke-miterlimit="10" cx="34" cy="18.9" r="13.2"/>
	<g>
		<defs>
			<polygon id="SVGID_1_" points="23.4,20.8 25.6,18.4 23.8,14.9 30.1,9.1 36.1,9.1 41,10.5 42.7,14.9 41,18.1 43.1,20.8 43.1,25.6 
				35.8,25.6 26.4,26.3 			"/>
		</defs>
		<clipPath id="SVGID_2_">
			<use xlink:href="#SVGID_1_"  overflow="visible"/>
		</clipPath>
	</g>
</g>
<g>
	<defs>
		<circle id="SVGID_3_" cx="33.8" cy="19.3" r="12.9"/>
	</defs>
	<clipPath id="SVGID_4_">
		<use xlink:href="#SVGID_3_"  overflow="visible"/>
	</clipPath>
	<g clip-path="url(#SVGID_4_)">
		<defs>
			<circle id="SVGID_5_" cx="44.7" cy="19.4" r="17.9"/>
		</defs>
		<clipPath id="SVGID_6_">
			<use xlink:href="#SVGID_5_"  overflow="visible"/>
		</clipPath>
		<g clip-path="url(#SVGID_6_)">
			<path fill="#FFFFFF" d="M20.4-4.9c16.3,0,32.6,0,48.9,0c0,16.3,0,32.6,0,48.9c-16.3,0-32.6,0-48.9,0
				C20.4,27.7,20.4,11.4,20.4-4.9z M44.7,42.5c12,0,22.9-9.5,23-22.9C67.8,6.8,57.4-3.6,44.8-3.6c-12.8,0-23.1,10.3-23.1,23.1
				C21.7,32.2,32,42.5,44.7,42.5z"/>
			<path fill-rule="evenodd" clip-rule="evenodd" d="M44.7,42.5c-12.8,0-23.1-10.3-23.1-23c0-12.8,10.3-23.1,23.1-23.1
				c12.7,0,23,10.4,22.9,23.1C67.6,32.9,56.8,42.5,44.7,42.5z M22.7,19.4c0,12.6,10.3,22.4,22.7,22c11.3-0.4,21.3-9.6,21.2-22.2
				C66.5,6.9,56.4-2.8,44-2.5C32.5-2.1,22.8,7.2,22.7,19.4z"/>
			<path fill-rule="evenodd" clip-rule="evenodd" fill="#ED6124" d="M22.7,19.4C22.8,7.2,32.5-2.1,44-2.5
				c12.4-0.4,22.5,9.4,22.6,21.7c0.1,12.6-9.9,21.8-21.2,22.2C33.1,41.8,22.8,32,22.7,19.4z M62.2,24.4c2.6-8.2-1.6-18.8-11.7-22.2
				c-9.9-3.3-19.1,2.4-22,9.2c1.7-0.8,3.4-1.1,5.2-1c1.6,0,3.1,0.4,4.4,1.3c1.2,0.8,1.7,2,1.5,3.5c-0.2,1.6-1.2,2.6-2.4,3.4
				c-0.8,0.5-1.7,0.9-2.6,1.4c0.2,0,0.3,0,0.4,0c1.5-0.1,2.6,0.4,3.3,1.7c0.1,0.1,0.4,0.2,0.6,0.2c2.4-0.1,4.9-0.3,7.3-0.4
				c4-0.1,8,0.1,11.9,0.8C59.5,22.6,61.2,22.7,62.2,24.4z M38.4,23c-0.2,2-1.3,3.3-2.6,4.3c-1.4,1.1-3.9,1.6-5.2-0.6
				c0,0-0.1,0-0.2,0c0,0.4,0,0.7,0,1.1c-0.9-0.2-1.7-1-1.7-1.9c0-1.7,0-3.3,0.3-5c0.3-1.8,0.9-3.6,1.5-5.3c0.2-0.6,0.6-1.2,1.4-1.3
				c1-0.1,1.8,0.1,2.6,0.7c-1.8,1.1-2.1,2.9-3,4.6c0.5-0.2,0.9-0.2,1.2-0.3c2-0.6,3.8-1.5,5.2-3.1c1.2-1.4,0.8-2.5-0.9-3
				c-0.3-0.1-0.5-0.1-0.8-0.2c-3.7-0.4-6.7,0.9-9.4,3.4c-0.2,0.1-0.3,0.4-0.3,0.6c0,1.7-0.2,3.4,0,5C28.4,35.4,43.9,42.2,55,34.5
				c2-1.4,3.3-3.2,3.8-5.6c0.5-2.1-0.1-3.2-2.1-4c-0.7-0.3-1.4-0.5-2.1-0.7c-3.5-0.8-7-1.1-10.5-1.2C42.3,23,40.3,23,38.4,23z
				 M36.5,23.4c-1.3-0.1-3.4,0.6-4.3,1.3c-0.5,0.4-0.9,0.9-0.6,1.6c0.2,0.5,0.9,0.9,1.6,0.8C34.8,26.9,36.4,25.1,36.5,23.4z
				 M36.5,22.2c-0.5-0.4-0.8-0.7-1.2-0.9c-1.3-0.6-2.6-0.3-3.9-0.1c-0.1,0-0.3,0.2-0.3,0.3c-0.2,1.1-0.4,2.2-0.7,3.3
				C32.1,23,34.2,22.7,36.5,22.2z"/>
		</g>
	</g>
</g>
</svg>
