<?xml version="1.0" encoding="utf-8"?>
<!-- Generator: Adobe Illustrator 16.0.0, SVG Export Plug-In . SVG Version: 6.00 Build 0)  -->
<!DOCTYPE svg PUBLIC "-//W3C//DTD SVG 1.1//EN" "http://www.w3.org/Graphics/SVG/1.1/DTD/svg11.dtd">
<svg version="1.1" id="Layer_1" xmlns="http://www.w3.org/2000/svg" xmlns:xlink="http://www.w3.org/1999/xlink" x="0px" y="0px"
	 width="67.2px" height="45px" viewBox="0 0 67.2 45" enable-background="new 0 0 67.2 45" xml:space="preserve">
<path fill="#31C3F2" d="M50.9,19c0-9.3-7.6-16.9-16.9-16.9c-9.3,0-16.9,7.6-16.9,16.9c0,5.3,3,9.9,6.3,13.2L34,42.8l11.7-11.7l0,0
	C48.9,28,50.9,23.8,50.9,19z"/>
<circle fill="#FFFFFF" cx="34" cy="18.9" r="13.2"/>
<circle opacity="0.3" fill="#FFFFFF" stroke="#000000" stroke-miterlimit="10" enable-background="new    " cx="34" cy="18.9" r="13.2"/>
<g>
	<path fill="#FFFFFF" d="M34,26.5c0-2.2,0-4.4,0-6.6c0.1,0,0.2-0.1,0.2-0.1c0.2,0.2,0.5,0.5,0.5,0.7c0,1.8,0,3.7,0,5.5
		c0,0.2-0.3,0.5-0.5,0.7C34.1,26.6,34,26.6,34,26.5z"/>
	<path fill="#FFFFFF" d="M34.2,11.9c0.2,0.2,0.4,0.4,0.5,0.7c0,1.4,0,2.9,0,4.3c0,0.2-0.3,0.4-0.5,0.6c-0.1,0-0.1-0.1-0.2-0.1
		c0-1.8,0-3.5,0-5.3C34,12,34.1,11.9,34.2,11.9z"/>
</g>
<g enable-background="new    ">
	<path fill="#DA1F26" d="M39.9,23.1h2v1.1h-6v-1.1h2.3v-8.6h-0.1L34.1,21L30,14.5h-0.1v8.6h2.3v1.1h-6v-1.1h2v-9.8h-2v-1.1h4l3.8,6
		l3.8-6h4v1.1h-2V23.1z"/>
</g>
</svg>
