<?xml version="1.0" encoding="utf-8"?>
<!-- Generator: Adobe Illustrator 16.0.0, SVG Export Plug-In . SVG Version: 6.00 Build 0)  -->
<!DOCTYPE svg PUBLIC "-//W3C//DTD SVG 1.1//EN" "http://www.w3.org/Graphics/SVG/1.1/DTD/svg11.dtd">
<svg version="1.1" id="Layer_1" xmlns="http://www.w3.org/2000/svg" xmlns:xlink="http://www.w3.org/1999/xlink" x="0px" y="0px"
	 width="67.2px" height="45px" viewBox="0 0 67.2 45" enable-background="new 0 0 67.2 45" xml:space="preserve">
<path fill="#31C3F2" d="M50.9,19c0-9.3-7.6-16.9-16.9-16.9c-9.3,0-16.9,7.6-16.9,16.9c0,5.3,3,9.9,6.3,13.2l10.6,10.6l11.7-11.7l0,0
	C48.9,28,50.9,23.8,50.9,19z"/>
<circle fill="#FFFFFF" cx="34" cy="18.9" r="13.2"/>
<circle opacity="0.3" fill="#FFFFFF" stroke="#000000" stroke-miterlimit="10" cx="34" cy="18.9" r="13.2"/>
<g>
	<path fill-rule="evenodd" clip-rule="evenodd" fill="#FFFFFF" d="M34,26.5c0-2.2,0-4.4,0-6.6c0.1,0,0.2-0.1,0.2-0.1
		c0.2,0.2,0.5,0.5,0.5,0.7c0,1.8,0,3.7,0,5.5c0,0.2-0.3,0.5-0.5,0.7C34.1,26.6,34,26.6,34,26.5z"/>
	<path fill-rule="evenodd" clip-rule="evenodd" fill="#FFFFFF" d="M34.2,11.9c0.2,0.2,0.4,0.4,0.5,0.7c0,1.4,0,2.9,0,4.3
		c0,0.2-0.3,0.4-0.5,0.6c-0.1,0-0.1-0.1-0.2-0.1c0-1.8,0-3.5,0-5.3C34,12,34.1,11.9,34.2,11.9z"/>
</g>
<g>
	<path fill-rule="evenodd" clip-rule="evenodd" fill="#C0242A" d="M40.3,18.4c0,1.5,0,2.9,0,4.4c0,1.5-0.7,2.2-2.2,2.2
		c-0.6,0-1.3,0-1.9,0c-1.4-0.1-2.4-1.7-1.9-2.9c0.1-0.3,0.5-0.2,0.7-0.2c0.5,0,1-0.2,1.4,0.2c0,0,0,0.1,0,0.2c0,0.3-0.1,0.7,0.2,0.8
		c0.4,0.2,0.9,0.1,1.3,0.1c0.3,0,0.3-0.3,0.3-0.6c0-0.9,0-1.7,0-2.6c0-0.3-0.2-0.3-0.4-0.3c-0.6,0-1.2,0-1.8,0
		c-1.2,0-1.8-0.7-1.8-1.9c0-1.4,0-2.8,0-4.2c0-1.3,0.7-2,2-2c0.6,0,1.3,0,1.9,0c1.5,0,2.1,0.6,2.2,2.1c0,1.3,0,2.6,0,3.8
		C40.3,17.8,40.3,18.1,40.3,18.4z M38.1,15.7c0-0.4,0-0.8,0-1.2c0-1.3,0-1.2-1.3-1.2c0,0-0.1,0-0.1,0c-0.3,0-0.5,0.2-0.5,0.5
		c0,1.1,0,2.3,0,3.4c0,0.2,0,0.5,0.3,0.5c0.5,0,0.9,0,1.4,0c0.3,0,0.2-0.2,0.2-0.4C38.1,16.8,38.1,16.3,38.1,15.7z"/>
	<path fill-rule="evenodd" clip-rule="evenodd" fill="#C0242A" d="M30.4,15.5c0-1.1,0-2.3,0-3.4c0-0.4,0.1-0.5,0.5-0.5
		c1.7,0,1.7-0.1,1.7,1.6c0,1.9,0,3.8,0,5.7c0,0.5,0.1,0.7,0.6,0.6c0.6-0.1,0.8,0.1,0.7,0.7c0,0.1,0,0.2,0,0.3c0,0.9,0,0.9-0.9,0.9
		c-0.4,0-0.5,0.1-0.5,0.5c0,0.8,0,1.7,0,2.5c0,0.4-0.1,0.5-0.5,0.5c-1.6,0-1.6,0-1.6-1.6c0-0.6,0.3-1.4-0.1-1.8
		c-0.4-0.3-1.2-0.1-1.8-0.1c-1.6,0-1.7,0-1.6-1.6c0.1-1.3,0.5-2.5,0.8-3.8c0.3-1.3,0.3-1.3,1.6-1.3c0.4,0,0.5,0.1,0.4,0.5
		c-0.3,1.2-0.5,2.5-0.8,3.7c-0.1,0.4,0,0.5,0.4,0.5c1.3,0,1,0.1,1-1C30.5,17.5,30.5,16.5,30.4,15.5C30.5,15.5,30.5,15.5,30.4,15.5z"
		/>
</g>
</svg>
