<?xml version="1.0" encoding="utf-8"?>
<!-- Generator: Adobe Illustrator 16.0.0, SVG Export Plug-In . SVG Version: 6.00 Build 0)  -->
<!DOCTYPE svg PUBLIC "-//W3C//DTD SVG 1.1//EN" "http://www.w3.org/Graphics/SVG/1.1/DTD/svg11.dtd">
<svg version="1.1" id="Layer_1" xmlns="http://www.w3.org/2000/svg" xmlns:xlink="http://www.w3.org/1999/xlink" x="0px" y="0px"
	 width="67.2px" height="45px" viewBox="0 0 67.2 45" enable-background="new 0 0 67.2 45" xml:space="preserve">
<path fill="#31C3F2" d="M50.9,19c0-9.3-7.6-16.9-16.9-16.9c-9.3,0-16.9,7.6-16.9,16.9c0,5.3,3,9.9,6.3,13.2l10.6,10.6l11.7-11.7l0,0
	C48.9,28,50.9,23.8,50.9,19z"/>
<circle fill="#FFFFFF" cx="34" cy="18.9" r="13.2"/>
<circle opacity="0.3" fill="#FFFFFF" stroke="#000000" stroke-miterlimit="10" cx="34" cy="18.9" r="13.2"/>
<path fill-rule="evenodd" clip-rule="evenodd" d="M26.4,25.5c0.2-0.6,0.4-1,0.6-1.5c0.7-1.7,1.5-3.5,2.2-5.2
	c0.1-0.3,0.1-0.5-0.1-0.8c-0.5-0.5-0.8-1.2-0.8-2c0-1,0-1.9,0.1-2.9c0.1-0.9,1.3-2.1,2-2.1c0.9,0,1.9-0.1,2.8-0.2
	c0.1,0,0.3,0.2,0.3,0.3c0,1.4,0.1,2.8,0.1,4.2c0,0.1-0.1,0.3-0.1,0.4c-0.2,0.5-0.4,1-0.2,1.5c0,0.1,0,0.3-0.1,0.5
	c-0.2,0.4-0.5,0.8-0.6,1.3c-0.2,0.7,0.2,1.3,0.8,1.7c0.2,0.1,0.3,0.3,0.3,0.6c0,1.2,0,2.5,0,3.7c0,0.3-0.1,0.4-0.4,0.4
	c-0.3,0-0.7,0-1,0c-0.4,0-0.5-0.1-0.5-0.5c0-1.5,0-2.9,0-4.4c0-0.5,0-0.9,0-1.4c0-0.1-0.1-0.4-0.2-0.4c-0.2-0.1-0.5,0-0.6,0.3
	c-0.4,0.9-0.7,1.8-1.1,2.7c-0.5,1.1-0.9,2.2-1.4,3.4c-0.1,0.2-0.3,0.3-0.5,0.3C27.5,25.6,27,25.5,26.4,25.5z M31.8,15.1
	C31.8,15.1,31.8,15.1,31.8,15.1c-0.1-0.8-0.1-1.7-0.1-2.5c0-0.3-0.1-0.4-0.5-0.4c-0.4,0.1-0.8,0.3-1,0.7c-0.5,1.1-0.6,2.2-0.3,3.4
	c0.2,0.6,0.8,1,1.4,1c0.3,0,0.4-0.1,0.4-0.4C31.8,16.3,31.8,15.7,31.8,15.1z"/>
<path fill-rule="evenodd" clip-rule="evenodd" d="M35.9,18.1c-0.1,0.1-0.2,0.2-0.3,0.3c-0.5-0.5-0.5-0.5-0.1-1
	c0.5-0.7,0.4-1.5-0.2-2C35.1,15.3,35,15.1,35,15c0-1.2,0-2.5,0-3.7c0-0.1,0.1-0.3,0.2-0.3c0.9,0,1.9-0.1,2.8,0.1
	c1.5,0.3,2.4,1.6,2.4,3.1c0,0.6,0,1.3-0.1,2c-0.1,0.8-0.5,1.4-1.1,1.7c0.4,0.6,0.9,1.2,1.2,1.8c0.6,1.3,0.5,4.3-1.2,5.4
	c-0.4,0.2-0.9,0.5-1.3,0.5c-0.9,0.1-1.7,0.1-2.6,0.1c-0.1,0-0.3-0.2-0.3-0.3c0-1.2,0-2.5,0-3.7c0-0.2,0-0.4,0-0.7
	c0-0.3,0-0.5,0.4-0.2c0.1,0.1,0.3,0,0.5-0.1c0.1-0.1,0.3-0.4,0.3-0.5c-0.2-0.3,0-0.5,0.1-0.8C36.6,18.5,36.6,18.5,35.9,18.1z
	 M36.8,18.7c0,0.5,0,1.1,0,1.6c0,1.1,0,2.2,0,3.2c0,0.3,0,0.5,0.4,0.5c0.6-0.1,1.1-0.3,1.5-0.9c0.6-1.1,0.5-2.3,0.1-3.4
	C38.5,19,37.5,18.7,36.8,18.7z M36.9,14.6C36.9,14.6,36.9,14.6,36.9,14.6c0,0.7,0,1.5,0,2.2c0,0.3,0.1,0.4,0.4,0.4
	c0.7-0.1,1.1-0.5,1.4-1.1c0.4-1,0.3-2.1-0.2-3.1c-0.2-0.5-0.6-0.8-1.1-0.9c-0.3-0.1-0.5,0-0.5,0.4C36.9,13.2,36.9,13.9,36.9,14.6z"
	/>
<path fill-rule="evenodd" clip-rule="evenodd" d="M35.6,18.9c0.1-0.2,0.2-0.4,0.4-0.6c0.4,0.1,0.5,0.3,0.3,0.6
	c-0.2,0.3-0.5,0.6-0.2,1c0,0.1-0.2,0.3-0.3,0.5c-0.2-0.1-0.2-0.2-0.3-0.3c-1.4,0.6-1.8,0.6-2.3,0c-0.6-0.8-0.4-1.6,0.5-2.4
	c0-0.6-0.1-1.1,0-1.6c0.1-0.5,0.5-0.7,1-0.7c0.5,0,0.8,0.2,1,0.6c0.2,0.4,0.1,0.8-0.2,1.1C34.7,17.8,34.8,17.9,35.6,18.9z M34.2,18
	c-0.7,0.4-1,1-0.7,1.5c0.1,0.2,0.4,0.5,0.6,0.5c0.3,0,0.6-0.2,0.9-0.4c0,0,0-0.2,0-0.2C34.7,19,34.5,18.5,34.2,18z M34.1,16.7
	c0.1,0.2,0.3,0.4,0.4,0.6c0.2-0.2,0.4-0.4,0.5-0.7c0.1-0.2-0.1-0.5-0.4-0.5C34.2,16,34.1,16.3,34.1,16.7z"/>
</svg>
