<?xml version="1.0" encoding="utf-8"?>
<!-- Generator: Adobe Illustrator 16.0.0, SVG Export Plug-In . SVG Version: 6.00 Build 0)  -->
<!DOCTYPE svg PUBLIC "-//W3C//DTD SVG 1.1//EN" "http://www.w3.org/Graphics/SVG/1.1/DTD/svg11.dtd">
<svg version="1.1" id="Layer_1" xmlns="http://www.w3.org/2000/svg" xmlns:xlink="http://www.w3.org/1999/xlink" x="0px" y="0px"
	 width="67.2px" height="45px" viewBox="0 0 67.2 45" enable-background="new 0 0 67.2 45" xml:space="preserve">
<path fill="#31C3F2" d="M50.9,19c0-9.3-7.6-16.9-16.9-16.9c-9.3,0-16.9,7.6-16.9,16.9c0,5.3,3,9.9,6.3,13.2l10.6,10.6l11.7-11.7l0,0
	C48.9,28,50.9,23.8,50.9,19z"/>
<circle fill="#FFFFFF" cx="34" cy="18.9" r="13.2"/>
<circle opacity="0.3" fill="#FFFFFF" stroke="#000000" stroke-miterlimit="10" cx="34" cy="18.9" r="13.2"/>
<g>
	<path fill-rule="evenodd" clip-rule="evenodd" fill="#5D341D" d="M30.7,18c-0.5-1.4-0.4-2.8-0.3-4.3c0.1-1.5,1.1-2.3,2.6-2.4
		c1.6-0.1,3.3,0,4.9,0c0.6,0,0.8,0.2,0.7,0.8c-0.1,0.6,0,1.2,0,1.8c0,0.6,0.1,1.3-0.9,1.2c-0.8-0.1-1.5,0-1.3-1.2
		c0.1-0.7-0.3-0.9-0.9-0.9c-0.3,0-0.6,0-0.9,0c-0.7,0.1-1.5-0.3-1.9,0.5c-0.4,0.9-0.4,1.9-0.1,2.9c0.1,0.3,0.5,0.5,0.8,0.5
		c0.3,0,0.7,0,1,0c1.4,0,3-0.4,3.7,1.2c0.9,1.7,0.7,3.6,0.2,5.4c-0.3,1.2-1.5,1.6-2.6,1.6c-1.6,0-3.2,0-4.8,0.1
		c-0.8,0-1-0.2-0.9-0.9c0.1-0.6,0-1.3,0-1.9c0-0.7-0.2-1.4,0.9-1.4c1,0,1.4,0.3,1.2,1.3c-0.2,0.9,0.3,1,1,0.9c0.2,0,0.4,0,0.6,0
		c2.4,0,3.1-0.9,2.5-3.3c-0.2-0.9-1-0.8-1.7-0.8C33.3,19.3,31.7,19.5,30.7,18L30.7,18z"/>
	<path fill-rule="evenodd" clip-rule="evenodd" fill="#D36E26" d="M30.7,18L30.7,18c-0.5,0.9,0.3,1.1,0.8,1.4
		c0.7,0.4,1.5,0.4,2.3,0.4c2.4,0,2.6,0.4,1.9,2.9c-0.1-0.1-0.3-0.2-0.3-0.3c0.2-1.7-0.5-2.3-2.2-2.2c-4.3,0.3-4.4-2.4-4-5.9
		c0-0.4,0.2-0.7,0.5-1c0,1.1,0,2.2,0.1,3.4C29.8,17.2,29.8,18,30.7,18z"/>
	<path fill-rule="evenodd" clip-rule="evenodd" fill="#D36E26" d="M34.5,26.2c-1.9,0.2-3.4,0.3-4.9,0.4c-0.4,0-0.5-0.3-0.5-0.6
		c0-1.2-0.1-2.5-0.1-3.7c0-0.2,0-0.5,0.3-0.5c0.3,0,0.3,0.3,0.3,0.6c0.1,1.2-0.6,2.9,0.4,3.6c0.8,0.6,2.4,0,3.6-0.1
		C33.9,25.8,34,25.9,34.5,26.2z"/>
	<path fill-rule="evenodd" clip-rule="evenodd" fill="#D36E26" d="M33.2,14c0.7-0.5,1.4-0.3,2-0.2c1,0.1,0.5,1,0.6,1.5
		c0.1,0.6,0.6,0.4,0.8,0.7c-1.1,0.4-1.7,0.2-1.7-1.2C35,13.6,33.8,14.6,33.2,14z"/>
</g>
</svg>
