<?xml version="1.0" encoding="utf-8"?>
<!-- Generator: Adobe Illustrator 16.0.0, SVG Export Plug-In . SVG Version: 6.00 Build 0)  -->
<!DOCTYPE svg PUBLIC "-//W3C//DTD SVG 1.1//EN" "http://www.w3.org/Graphics/SVG/1.1/DTD/svg11.dtd">
<svg version="1.1" id="Layer_1" xmlns="http://www.w3.org/2000/svg" xmlns:xlink="http://www.w3.org/1999/xlink" x="0px" y="0px"
	 width="67.2px" height="45px" viewBox="0 0 67.2 45" enable-background="new 0 0 67.2 45" xml:space="preserve">
<path fill="#31C3F2" d="M50.9,19c0-9.3-7.6-16.9-16.9-16.9c-9.3,0-16.9,7.6-16.9,16.9c0,5.3,3,9.9,6.3,13.2l10.6,10.6l11.7-11.7l0,0
	C48.9,28,50.9,23.8,50.9,19z"/>
<circle fill="#FFFFFF" cx="34" cy="18.9" r="13.2"/>
<circle opacity="0.3" fill="#FFFFFF" stroke="#000000" stroke-miterlimit="10" cx="34" cy="18.9" r="13.2"/>
<g>
	<path fill-rule="evenodd" clip-rule="evenodd" d="M30.7,24.8c0,0.7,0,1.3,0,2c-0.5-0.3-0.6-1.2-0.4-2.2c1.1-0.1,2.2-0.3,3.6-0.5
		c0.5-0.4,0.3-1.2,0.2-1.9c0-0.1-0.3-0.3-0.5-0.3c-0.8,0-1.6,0-2.4,0.2c-0.6,0.1-0.9-0.2-1-0.7c-0.1-0.5-0.2-1.1-0.2-1.7
		c0-1.7,0-1.6,1.6-1.7c1.2-0.1,2.2,0.2,3.2,1c0.3,0.3,0.5,0.5,0.5,0.9c0,0.8,0,1.5,0,2.3c0.4,0,0.8,0,1.3-0.1c-0.1,1-0.2,2-0.3,3
		c-0.6-0.2-0.9-0.3-1.4-0.5c0,0.6,0,1,0,1.6c-0.7,0-1.3,0-1.9,0c-0.1,0-0.3-0.2-0.4-0.4C32.2,25.3,31.6,25,30.7,24.8z"/>
	<path fill-rule="evenodd" clip-rule="evenodd" d="M36.3,16.7c-0.6,0.5-1.1,0.9-1.7,1.3c-1.2-1.5-2.9-0.7-4.4-1
		c-0.3-1.4,0-2.8,0.6-4c0.1-0.2,0.3-0.3,0.5-0.4c0.9-0.4,1.9-0.7,2.8-1.1c0.6-0.2,1.3-0.5,2.1-0.8c0.1,0.9,0.2,1.8,0.3,2.7
		c-0.5,0-0.9,0-1.3,0c-0.5,0.1-1,0.1-1.6,0.3c-0.8,0.2-1,0.9-1.1,1.6c-0.1,0.7,0.2,1,0.9,0.9c0.8-0.1,1.5-0.3,2.3,0
		C35.9,16.3,36.1,16.5,36.3,16.7z"/>
	<path fill-rule="evenodd" clip-rule="evenodd" d="M36,21.4c0-0.4,0-0.9,0-1.3c0-0.6,0.2-1.3-0.9-1.5c0.5-0.5,0.9-0.8,1.3-1.1
		c0.1,0.2,0.1,0.3,0.1,0.5c0,1,0.1,2.1,0,3.1c0,0.2-0.2,0.3-0.4,0.5C36.1,21.5,36.1,21.5,36,21.4z"/>
</g>
</svg>
