<?xml version="1.0" encoding="utf-8"?>
<!-- Generator: Adobe Illustrator 16.0.0, SVG Export Plug-In . SVG Version: 6.00 Build 0)  -->
<!DOCTYPE svg PUBLIC "-//W3C//DTD SVG 1.1//EN" "http://www.w3.org/Graphics/SVG/1.1/DTD/svg11.dtd">
<svg version="1.1" id="Layer_1" xmlns="http://www.w3.org/2000/svg" xmlns:xlink="http://www.w3.org/1999/xlink" x="0px" y="0px"
	 width="67.2px" height="45px" viewBox="0 0 67.2 45" enable-background="new 0 0 67.2 45" xml:space="preserve">
<path fill="#31C3F2" d="M50.9,19c0-9.3-7.6-16.9-16.9-16.9c-9.3,0-16.9,7.6-16.9,16.9c0,5.3,3,9.9,6.3,13.2l10.6,10.6l11.7-11.7l0,0
	C48.9,28,50.9,23.8,50.9,19z"/>
<circle fill="#FFFFFF" cx="34" cy="18.9" r="13.2"/>
<circle opacity="0.3" fill="#FFFFFF" stroke="#000000" stroke-miterlimit="10" cx="34" cy="18.9" r="13.2"/>
<g>
	<path fill-rule="evenodd" clip-rule="evenodd" d="M28.4,22.2c0-0.6,0-1.2,0-1.9c0-0.6,0.2-0.7,0.7-0.4c0.9,0.4,1.1,1.1,1.1,2.1
		c-0.1,0.8,0.2,1,1,0.9c0.5,0,0.7-0.2,0.7-0.7c0-0.7,0.1-1.5,0-2.2c0-0.3-0.3-0.6-0.5-0.8c-0.7-0.5-1.4-0.9-2.1-1.4
		c-0.7-0.4-1-0.9-1-1.7c0-1.1,0-2.3,0-3.4c0-0.6,0.3-0.9,0.9-1c1.1-0.1,2.2-0.1,3.3-0.1c0.9,0,1.1,0.3,1.1,1.2c0,0.8,0,1.5,0,2.3
		c0,0.7-0.2,0.8-0.8,0.5c-0.6-0.3-1-0.7-0.9-1.4c0.1-0.9-0.5-1.3-1.4-1c-0.2,0.1-0.4,0.4-0.4,0.6c0,0.6-0.1,1.2,0,1.7
		c0.1,0.4,0.4,0.8,0.7,1.1c0.7,0.6,1.5,1,2.2,1.5c0.5,0.4,0.7,0.8,0.6,1.6c-0.1,1.1,0,2.3-0.1,3.4c0,1.2-0.3,1.5-1.5,1.6
		c-1,0-1.9,0-2.9,0c-0.5,0-0.8-0.3-0.8-0.8C28.5,23.4,28.4,22.8,28.4,22.2C28.4,22.2,28.4,22.2,28.4,22.2z"/>
	<path fill-rule="evenodd" clip-rule="evenodd" d="M34.9,12.1c1.1,0,2.3,0,3.4,0c0.5,0,1,0,1.5,0c0.2,0,0.5,0.1,0.6,0.3
		c0.5,0.8,0.1,2.2-0.7,2.7c-0.2,0.1-0.4,0.2-0.7,0.4c0-0.4-0.1-0.6-0.1-0.9c0-0.8-0.1-0.9-0.9-0.9c-0.3,0-0.5,0-0.9,0
		c0,1.4,0,2.7,0,4.2c0.2-0.1,0.4-0.1,0.6-0.2c0.3-0.2,0.6-0.4,0.8-0.6c0.3-0.3,0.6-0.2,0.6,0.2c0,0.7,0,1.4-0.8,1.8
		c-1.5,0.9-1.8,1.7-1.3,3.4c0.2,0.6,0.5,1.1,0.8,1.8c-1,0-2,0-2.8,0c0.1-0.7,0.3-1.3,0.3-2c0-2.9,0.1-5.8,0-8.7
		C35.4,13.2,35.1,12.6,34.9,12.1z"/>
</g>
</svg>
