<?xml version="1.0" encoding="utf-8"?>
<!-- Generator: Adobe Illustrator 16.0.0, SVG Export Plug-In . SVG Version: 6.00 Build 0)  -->
<!DOCTYPE svg PUBLIC "-//W3C//DTD SVG 1.1//EN" "http://www.w3.org/Graphics/SVG/1.1/DTD/svg11.dtd">
<svg version="1.1" id="Layer_1" xmlns="http://www.w3.org/2000/svg" xmlns:xlink="http://www.w3.org/1999/xlink" x="0px" y="0px"
	 width="67.2px" height="45px" viewBox="0 0 67.2 45" enable-background="new 0 0 67.2 45" xml:space="preserve">
<path fill="#31C3F2" d="M50.9,19c0-9.3-7.6-16.9-16.9-16.9c-9.3,0-16.9,7.6-16.9,16.9c0,5.3,3,9.9,6.3,13.2l10.6,10.6l11.7-11.7l0,0
	C48.9,28,50.9,23.8,50.9,19z"/>
<circle fill="#FFFFFF" cx="34" cy="18.9" r="13.2"/>
<circle opacity="0.3" fill="#FFFFFF" stroke="#000000" stroke-miterlimit="10" cx="34" cy="18.9" r="13.2"/>
<g>
	<path fill-rule="evenodd" clip-rule="evenodd" fill="#FEC01B" d="M34,27.9c-4.7,0.1-9-3.7-9-9c0-5.1,4.1-9,9.1-9
		c5.1,0,9,4.3,8.9,9.2C42.9,24,38.9,28,34,27.9z M34,24.9c1.6,0,3.3,0,4.9,0c0.3,0,0.4-0.1,0.3-0.3c0-0.4,0-0.8,0-1.3
		c0-0.3-0.1-0.4-0.4-0.4c-1.1,0-2.2,0-3.3,0c-0.3,0-0.4-0.1-0.4-0.4c0-1.2,0-2.4,0-3.6c0-0.2,0-0.3,0.1-0.5c0.7-1.2,1.5-2.3,2.2-3.5
		c0.1-0.2,0.2-0.2,0.4-0.2c0.3,0,0.6,0,1,0c0.3,0,0.4-0.1,0.4-0.3c0-0.4,0-0.8,0-1.2c0-0.3-0.1-0.3-0.3-0.3c-0.7,0-1.4,0-2.1,0
		c-0.3,0-0.5,0.1-0.7,0.3c-0.6,1-1.3,2-2,3c-0.2,0.3-0.3,0.3-0.4,0c-0.6-1-1.3-2-1.9-3c-0.1-0.2-0.2-0.3-0.4-0.3c-0.8,0-1.6,0-2.4,0
		c-0.2,0-0.3,0.1-0.3,0.3c0,0.4,0,0.9,0,1.3c0,0.2,0.1,0.3,0.3,0.3c0.3,0,0.6,0,1,0c0.2,0,0.3,0.1,0.5,0.3c0.8,1.2,1.5,2.3,2.3,3.4
		c0.1,0.2,0.1,0.3,0.1,0.5c0,1.2,0,2.4,0,3.5c0,0.3-0.1,0.4-0.4,0.4c-1.1,0-2.3,0-3.4,0c-0.3,0-0.4,0.1-0.4,0.4c0,0.4,0,0.8,0,1.2
		c0,0.3,0.1,0.4,0.4,0.4C30.8,24.9,32.4,24.9,34,24.9z M28.1,13.3c-3.2,3.1-3,8.5,0,11.3c0-0.7,0-1.3,0-1.9c0-0.3,0.1-0.4,0.4-0.4
		c1.1,0,2.3,0,3.4,0c0.3,0,0.3-0.1,0.3-0.3c0-0.9,0-1.8,0-2.7c0-0.2,0-0.3-0.1-0.5c-0.7-1-1.4-2-2.1-3.1c-0.1-0.2-0.2-0.2-0.4-0.2
		c-0.3,0-0.7,0-1,0c-0.3,0-0.5-0.1-0.4-0.4C28.2,14.5,28.1,13.9,28.1,13.3z M39.9,13.3c0,0.4,0,0.7,0,1c0,0.4,0.2,0.9-0.1,1.2
		c-0.2,0.2-0.7,0-1.1,0.1c-0.1,0-0.1,0-0.2,0c-0.2,0-0.4,0.1-0.5,0.3c-0.7,1-1.3,2-2,3.1c-0.1,0.1-0.1,0.3-0.1,0.4
		c0,0.9,0,1.8,0,2.8c0,0.3,0.1,0.3,0.4,0.3c1.1,0,2.2,0,3.3,0c0.3,0,0.4,0.1,0.4,0.4c0,0.6,0,1.2,0,1.9C43,21.7,43.1,16.3,39.9,13.3
		z M38.8,12.3c-2.9-2.2-7.2-1.9-9.5,0c0.8,0,1.6,0,2.4,0c0.3,0,0.4,0.1,0.6,0.3c0.5,0.8,1.1,1.7,1.6,2.5c0.2,0.3,0.3,0.2,0.4,0
		c0.6-0.9,1.1-1.7,1.7-2.6c0.1-0.2,0.2-0.3,0.5-0.2C37.2,12.3,38,12.3,38.8,12.3z M29.2,25.6c2.9,2.2,7.2,1.9,9.5,0
		C35.6,25.6,32.5,25.6,29.2,25.6z"/>
	<path fill-rule="evenodd" clip-rule="evenodd" fill="#EE2D26" d="M34,24.9c-1.6,0-3.3,0-4.9,0c-0.3,0-0.4-0.1-0.4-0.4
		c0-0.4,0-0.8,0-1.2c0-0.3,0.1-0.4,0.4-0.4c1.1,0,2.3,0,3.4,0c0.3,0,0.4-0.1,0.4-0.4c0-1.2,0-2.4,0-3.5c0-0.2,0-0.3-0.1-0.5
		c-0.8-1.1-1.5-2.3-2.3-3.4c-0.1-0.2-0.2-0.3-0.5-0.3c-0.3,0-0.6,0-1,0c-0.2,0-0.3-0.1-0.3-0.3c0-0.4,0-0.9,0-1.3
		c0-0.2,0.1-0.3,0.3-0.3c0.8,0,1.6,0,2.4,0c0.2,0,0.3,0.1,0.4,0.3c0.6,1,1.3,2,1.9,3c0.2,0.3,0.3,0.3,0.4,0c0.7-1,1.3-2,2-3
		c0.2-0.3,0.4-0.4,0.7-0.3c0.7,0,1.4,0,2.1,0c0.2,0,0.3,0.1,0.3,0.3c0,0.4,0,0.8,0,1.2c0,0.3-0.1,0.3-0.4,0.3c-0.3,0-0.6,0-1,0
		c-0.2,0-0.3,0.1-0.4,0.2c-0.7,1.2-1.5,2.3-2.2,3.5c-0.1,0.2-0.1,0.3-0.1,0.5c0,1.2,0,2.4,0,3.6c0,0.3,0.1,0.4,0.4,0.4
		c1.1,0,2.2,0,3.3,0c0.3,0,0.4,0.1,0.4,0.4c0,0.4,0,0.8,0,1.3c0,0.3-0.1,0.3-0.3,0.3C37.3,24.9,35.7,24.9,34,24.9z"/>
	<path fill-rule="evenodd" clip-rule="evenodd" fill="#FFFEFC" d="M28.1,13.3c0,0.7,0,1.3,0,1.9c0,0.4,0.1,0.4,0.4,0.4
		c0.3,0,0.7,0,1,0c0.2,0,0.3,0,0.4,0.2c0.7,1,1.4,2.1,2.1,3.1c0.1,0.1,0.1,0.3,0.1,0.5c0,0.9,0,1.8,0,2.7c0,0.3-0.1,0.3-0.3,0.3
		c-1.1,0-2.3,0-3.4,0c-0.3,0-0.4,0.1-0.4,0.4c0,0.6,0,1.2,0,1.9C25.1,21.8,24.9,16.4,28.1,13.3z"/>
	<path fill-rule="evenodd" clip-rule="evenodd" fill="#FFFEFC" d="M39.9,13.3c3.1,3,3.1,8.5,0,11.3c0-0.7,0-1.3,0-1.9
		c0-0.3-0.1-0.4-0.4-0.4c-1.1,0-2.2,0-3.3,0c-0.3,0-0.4,0-0.4-0.3c0-0.9,0-1.8,0-2.8c0-0.1,0-0.3,0.1-0.4c0.7-1,1.4-2,2-3.1
		c0.1-0.2,0.3-0.3,0.5-0.3c0.1,0,0.1,0,0.2,0c0.4,0,0.9,0.2,1.1-0.1c0.2-0.2,0.1-0.8,0.1-1.2C39.9,14,39.9,13.7,39.9,13.3z"/>
	<path fill-rule="evenodd" clip-rule="evenodd" fill="#FFFEFC" d="M38.8,12.3c-0.8,0-1.6,0-2.4,0c-0.2,0-0.3,0.1-0.5,0.2
		c-0.6,0.9-1.1,1.7-1.7,2.6c-0.2,0.2-0.2,0.3-0.4,0c-0.5-0.8-1.1-1.7-1.6-2.5c-0.1-0.2-0.3-0.3-0.6-0.3c-0.8,0-1.6,0-2.4,0
		C31.6,10.4,35.9,10.1,38.8,12.3z"/>
	<path fill-rule="evenodd" clip-rule="evenodd" fill="#FFFEFC" d="M29.2,25.6c3.2,0,6.4,0,9.5,0C36.4,27.5,32.2,27.8,29.2,25.6z"/>
</g>
</svg>
