<?xml version="1.0" encoding="utf-8"?>
<!-- Generator: Adobe Illustrator 16.0.0, SVG Export Plug-In . SVG Version: 6.00 Build 0)  -->
<!DOCTYPE svg PUBLIC "-//W3C//DTD SVG 1.1//EN" "http://www.w3.org/Graphics/SVG/1.1/DTD/svg11.dtd">
<svg version="1.1" id="Layer_1" xmlns="http://www.w3.org/2000/svg" xmlns:xlink="http://www.w3.org/1999/xlink" x="0px" y="0px"
	 width="24px" height="24px" viewBox="0 0 24 24" enable-background="new 0 0 24 24" xml:space="preserve">
<symbol  id="ic_x5F_schedule" viewBox="0 -24 24 24">
	<g>
		<path fill-opacity="0.9" d="M12-2C6.5-2,2-6.5,2-12s4.5-10,10-10s10,4.5,10,10S17.5-2,12-2z M12-20c-4.4,0-8,3.6-8,8s3.6,8,8,8
			s8-3.6,8-8S16.4-20,12-20z"/>
	</g>
	<polygon fill="none" points="24,-24 0,-24 0,0 24,0 	"/>
	<polygon fill-opacity="0.9" points="12.5,-6 11,-6 11,-13 16.3,-16.2 17.1,-14.9 12.5,-12.2 	"/>
</symbol>
<use xlink:href="#ic_x5F_schedule"  width="24" height="24" id="XMLID_223_" y="-24" transform="matrix(1 0 0 -1 0 -4.882812e-04)" overflow="visible"/>
</svg>
