<?xml version="1.0" encoding="utf-8"?>
<!-- Generator: Adobe Illustrator 16.0.0, SVG Export Plug-In . SVG Version: 6.00 Build 0)  -->
<!DOCTYPE svg PUBLIC "-//W3C//DTD SVG 1.1//EN" "http://www.w3.org/Graphics/SVG/1.1/DTD/svg11.dtd">
<svg version="1.1" id="Layer_1" xmlns="http://www.w3.org/2000/svg" xmlns:xlink="http://www.w3.org/1999/xlink" x="0px" y="0px"
	 width="56px" height="168px" viewBox="0 0 56 168" enable-background="new 0 0 56 168" xml:space="preserve">
<g id="ic_x5F_list_x0D_">
	<g>
		<path fill="#FFFFFF" d="M19,85.7h3v-3h-3V85.7z M19,90.7h3v-3h-3V90.7z M19,80.7h3v-3h-3V80.7z M24,85.7h13v-3H24V85.7z M24,90.7
			h13v-3H24V90.7z M24,77.7v3h13v-3H24z"/>
	</g>
	<g id="XMLID_44_">
		<g>
			<polygon fill="#FFFFFF" points="34.2,23.3 28,29.5 21.8,23.3 19.9,25.2 28,33.3 36.1,25.2 			"/>
		</g>
	</g>
	<g id="XMLID_196_">
		<g>
			<path fill="#FFFFFF" d="M36.5,131c-0.1,0-0.1,0-0.2,0l-5.3,2.1l-6-2.1l-5.6,1.9c-0.2,0.1-0.4,0.2-0.4,0.5v15.1
				c0,0.3,0.2,0.5,0.5,0.5c0.1,0,0.1,0,0.2,0l5.3-2.1l6,2.1l5.6-1.9c0.2-0.1,0.4-0.3,0.4-0.5v-15.1C37,131.2,36.8,131,36.5,131z
				 M31,147l-6-2.1V133l6,2.1V147z"/>
		</g>
	</g>
</g>
</svg>
