<?xml version="1.0" encoding="utf-8"?>
<!-- Generator: Adobe Illustrator 16.0.0, SVG Export Plug-In . SVG Version: 6.00 Build 0)  -->
<!DOCTYPE svg PUBLIC "-//W3C//DTD SVG 1.1//EN" "http://www.w3.org/Graphics/SVG/1.1/DTD/svg11.dtd">
<svg version="1.1" id="Layer_1" xmlns="http://www.w3.org/2000/svg" xmlns:xlink="http://www.w3.org/1999/xlink" x="0px" y="0px"
	 width="56px" height="168px" viewBox="0 0 56 168" enable-background="new 0 0 56 168" xml:space="preserve">
<symbol  id="ic_x5F_expandMore" viewBox="0 -24 24 24">
	<g>
		<polygon fill="#010101" points="16.6,-8.6 12,-13.2 7.4,-8.6 6,-10 12,-16 18,-10 		"/>
		<polygon fill="none" points="0,0 0,-24 24,-24 24,0 		"/>
	</g>
</symbol>
<symbol  id="ic_x5F_guide" viewBox="0 -24 24 24">
	<g>
		<path fill="#010101" d="M20.5-3c-0.1,0-0.1,0-0.2,0L15-5.1L9-3L3.4-4.9C3.2-5,3-5.1,3-5.4v-15.1C3-20.8,3.2-21,3.5-21
			c0.1,0,0.1,0,0.2,0L9-18.9l6-2.1l5.6,1.9c0.2,0.1,0.4,0.3,0.4,0.5v15.1C21-3.2,20.8-3,20.5-3z M15-19l-6,2.1V-5l6-2.1V-19z"/>
	</g>
	<polygon fill="none" points="24,-24 0,-24 0,0 24,0 	"/>
</symbol>
<g id="ic_x5F_list_x0D_">
	<g>
		<path fill="#010101" d="M19,85.7h3v-3h-3V85.7z M19,90.7h3v-3h-3V90.7z M19,80.7h3v-3h-3V80.7z M24,85.7h13v-3H24V85.7z M24,90.7
			h13v-3H24V90.7z M24,77.7v3h13v-3H24z"/>
	</g>
	<rect x="16" y="16" fill="none" width="24" height="24"/>
	
		<use xlink:href="#ic_x5F_expandMore"  width="24" height="24" id="XMLID_44_" y="-24" transform="matrix(1 0 0 -1 16 16)" overflow="visible"/>
	
		<use xlink:href="#ic_x5F_guide"  width="24" height="24" id="XMLID_196_" y="-24" transform="matrix(1 0 0 -1 16 128)" overflow="visible"/>
</g>
</svg>
