<?xml version="1.0" encoding="utf-8"?>
<!-- Generator: Adobe Illustrator 16.0.0, SVG Export Plug-In . SVG Version: 6.00 Build 0)  -->
<!DOCTYPE svg PUBLIC "-//W3C//DTD SVG 1.1//EN" "http://www.w3.org/Graphics/SVG/1.1/DTD/svg11.dtd">
<svg version="1.1" id="Layer_1" xmlns="http://www.w3.org/2000/svg" xmlns:xlink="http://www.w3.org/1999/xlink" x="0px" y="0px"
	 width="24px" height="24px" viewBox="0 0 24 24" enable-background="new 0 0 24 24" xml:space="preserve">
<symbol  id="ic_x5F_phone" viewBox="0 -24 24 24">
	<g>
		<polygon fill="none" points="24,-24 0,-24 0,0 24,0 		"/>
		<path d="M6.6-10.8c1.4-2.8,3.8-5.1,6.6-6.6l2.2,2.2c0.3,0.3,0.7,0.4,1,0.2c1.1-0.4,2.3-0.6,3.6-0.6c0.6,0,1-0.4,1-1V-20
			c0-0.6-0.4-1-1-1C10.6-21,3-13.4,3-4c0,0.6,0.4,1,1,1h3.5c0.6,0,1-0.4,1-1c0-1.2,0.2-2.4,0.6-3.6c0.1-0.3,0-0.7-0.2-1L6.6-10.8z"
			/>
	</g>
</symbol>
<g id="ic_x5F_search_x0D_">
</g>
<use xlink:href="#ic_x5F_phone"  width="24" height="24" id="XMLID_148_" x="0" y="-24" transform="matrix(1 0 0 -1 0 0)" overflow="visible"/>
</svg>
