<?xml version="1.0" encoding="utf-8"?>
<!-- Generator: Adobe Illustrator 16.0.0, SVG Export Plug-In . SVG Version: 6.00 Build 0)  -->
<!DOCTYPE svg PUBLIC "-//W3C//DTD SVG 1.1//EN" "http://www.w3.org/Graphics/SVG/1.1/DTD/svg11.dtd">
<svg version="1.1" id="Layer_1" xmlns="http://www.w3.org/2000/svg" xmlns:xlink="http://www.w3.org/1999/xlink" x="0px" y="0px"
	 width="24px" height="24px" viewBox="0 0 24 24" enable-background="new 0 0 24 24" xml:space="preserve">
<symbol  id="ic_x5F_gplus_x5F_public" viewBox="0 -24 24 24">
	<polygon fill="none" points="24,-24 0,-24 0,0 24,0 	"/>
	<path d="M12-2C6.5-2,2-6.5,2-12s4.5-10,10-10s10,4.5,10,10S17.5-2,12-2z M11-19.9c-3.9,0.5-7,3.9-7,7.9c0,0.6,0.1,1.2,0.2,1.8L9-15
		v-1c0-1.1,0.9-2,2-2V-19.9z M17.9-17.4c-0.3,0.8-1,1.4-1.9,1.4h-1v3c0,0.6-0.4,1-1,1H8v2h2c0.6,0,1,0.4,1,1v2h2c1.1,0,2,0.9,2,2
		v0.4c2.9-1.2,5-4.1,5-7.4C20-14.1,19.2-16,17.9-17.4z"/>
</symbol>
<use xlink:href="#ic_x5F_gplus_x5F_public"  width="24" height="24" y="-24" transform="matrix(1 0 0 -1 0 0)" overflow="visible"/>
</svg>
