<?xml version="1.0" encoding="utf-8"?>
<!-- Generator: Adobe Illustrator 16.0.0, SVG Export Plug-In . SVG Version: 6.00 Build 0)  -->
<!DOCTYPE svg PUBLIC "-//W3C//DTD SVG 1.1//EN" "http://www.w3.org/Graphics/SVG/1.1/DTD/svg11.dtd">
<svg version="1.1" id="Layer_1" xmlns="http://www.w3.org/2000/svg" xmlns:xlink="http://www.w3.org/1999/xlink" x="0px" y="0px"
	 width="39.7px" height="67.3px" viewBox="0 0 39.7 67.3" enable-background="new 0 0 39.7 67.3" xml:space="preserve">
<path fill="none" stroke="#425261" stroke-width="1.0365" stroke-miterlimit="10" d="M35.3,62.4c0,0.7-0.6,1.4-1.4,1.4
	c0,0-6,2-13.1,2s-13.3-2-13.3-2c-0.7,0-1.4-0.6-1.4-1.4L0,2.9c0-0.7,0.6-1.4,1.4-1.4h37c0.7,0,1.4,0.6,1.4,1.4L35.3,62.4z"/>
<path fill="#F47A4D" d="M33.3,60.3c0,0-6.4,2.2-12.2,2.2S7.8,60.3,7.8,60.3L2.7,12.2c0,0,8.1,2.2,17.4,2.2s17.4-2.2,17.4-2.2
	L33.3,60.3z"/>
</svg>
